M48
; DRILL file {KiCad 7.0.1} date Sat Jan 20 12:24:02 2024
; FORMAT={-:-/ absolute / metric / decimal}
; #@! TF.CreationDate,2024-01-20T12:24:02-08:00
; #@! TF.GenerationSoftware,Kicad,Pcbnew,7.0.1
; #@! TF.FileFunction,MixedPlating,1,4
FMAT,2
METRIC
; #@! TA.AperFunction,Plated,PTH,ViaDrill
T1C0.200
; #@! TA.AperFunction,Plated,PTH,ViaDrill
T2C0.250
; #@! TA.AperFunction,Plated,PTH,ViaDrill
T3C0.254
; #@! TA.AperFunction,Plated,PTH,ViaDrill
T4C0.300
; #@! TA.AperFunction,NonPlated,NPTH,ComponentDrill
T5C3.175
%
G90
G05
T1
X19.65Y14.975
X20.0Y11.3
T2
X10.04Y44.44
X10.04Y41.9
X10.04Y39.36
X10.04Y36.82
X10.04Y34.28
X10.04Y31.74
X10.04Y29.2
X14.9Y8.3
X17.66Y4.308
X18.295Y11.141
X18.9Y8.4
X18.9Y6.9
X18.9Y3.3
X19.387Y4.968
X19.7Y7.7
X20.4Y8.4
X20.4Y6.9
X20.505Y41.849
X22.384Y6.188
X22.791Y1.514
X23.223Y6.213
X25.0Y8.321
T3
X21.5Y17.825
T4
X2.42Y46.98
X2.42Y44.44
X2.42Y41.9
X2.42Y39.36
X2.42Y36.82
X2.42Y34.28
X2.42Y31.74
X2.42Y29.2
X2.42Y13.96
X2.42Y11.42
X3.69Y48.25
X3.69Y30.47
X3.69Y27.93
X4.69Y37.6
X4.72Y45.23
X4.72Y40.15
X4.72Y35.08
X4.74Y29.99
X4.77Y42.68
X4.77Y32.52
X4.96Y46.98
X4.96Y13.96
X4.96Y11.42
X6.23Y48.25
X6.23Y27.93
X7.5Y46.98
X7.5Y24.12
X7.5Y13.96
X7.5Y11.42
X7.5Y3.8
X7.5Y1.26
X8.516Y19.904
X8.516Y19.091
X8.516Y18.278
X8.516Y17.465
X8.7Y8.321
X8.7Y7.5
X8.7Y6.7
X8.7Y5.9
X8.77Y48.25
X8.77Y27.93
X8.77Y25.39
X9.38Y17.465
X9.4Y19.904
X9.4Y19.091
X9.4Y18.278
X9.583Y8.341
X9.583Y7.508
X9.583Y6.696
X9.583Y5.883
X10.04Y46.98
X10.04Y24.12
X10.04Y3.8
X10.04Y1.26
X10.192Y19.904
X10.192Y19.091
X10.192Y18.278
X10.192Y17.465
X10.497Y8.321
X10.497Y7.508
X10.497Y6.696
X10.497Y5.883
X11.31Y48.25
X11.31Y27.93
X11.31Y25.39
X11.31Y5.07
X11.5Y2.1
X12.58Y46.98
X12.58Y24.12
X12.58Y3.8
X13.85Y48.25
X13.85Y31.232
X13.85Y27.93
X13.85Y25.39
X14.104Y43.932
X14.104Y41.392
X14.104Y36.312
X14.104Y33.772
X14.104Y12.385
X14.2Y4.2
X14.358Y38.852
X14.5Y2.5
X14.5Y0.9
X14.815Y11.8
X15.12Y46.98
X15.12Y36.82
X15.12Y34.28
X15.12Y31.74
X15.12Y29.2
X15.12Y3.8
X15.222Y23.866
X15.577Y12.334
X15.7Y4.4
X16.3Y6.7
X16.39Y48.25
X16.39Y36.185
X16.39Y30.47
X16.39Y27.93
X16.39Y25.39
X16.39Y20.31
X16.39Y17.77
X16.4Y2.5
X16.4Y0.9
X16.5Y12.3
X16.5Y11.5
X16.7Y3.4
X16.81Y40.41
X16.84Y39.41
X16.97Y47.031
X17.66Y44.44
X17.66Y21.58
X17.66Y19.04
X18.07Y33.11
X18.219Y46.98
X18.778Y40.884
X18.93Y48.25
X18.93Y27.93
X18.93Y25.39
X18.93Y22.85
X18.93Y20.31
X18.93Y17.77
X19.54Y2.124
X19.641Y1.006
X19.692Y42.916
X19.84Y43.87
X20.05Y32.32
X20.2Y24.12
X20.2Y21.58
X20.2Y19.04
X21.075Y13.15
X21.16Y34.47
X21.216Y33.34
X21.42Y9.13
X21.47Y27.93
X21.47Y25.39
X21.47Y22.85
X21.7Y9.91
X22.08Y46.574
X22.125Y13.15
X22.156Y11.496
X22.425Y8.118
X22.689Y5.019
X22.74Y24.12
X22.74Y21.58
X22.975Y13.675
X23.248Y8.118
X23.375Y41.265
X23.375Y40.249
X23.375Y39.106
X23.553Y43.475
X23.731Y33.34
X23.79Y34.48
X24.01Y48.25
X24.01Y30.47
X24.01Y27.93
X24.01Y25.39
X24.075Y8.118
X24.13Y20.32
X24.4Y5.0
X24.518Y46.599
X24.518Y41.265
X24.518Y40.249
X24.518Y39.106
X25.21Y33.09
X25.28Y31.74
X25.28Y21.58
X25.28Y5.07
X25.4Y13.97
X25.585Y45.761
X25.661Y41.265
X25.661Y40.249
X25.661Y39.106
X25.8Y11.7
X25.8Y10.7
X25.8Y9.8
X25.8Y8.9
X25.94Y2.378
X25.94Y1.565
X25.94Y0.75
X26.144Y47.488
X26.27Y28.3
X26.41Y33.13
X26.67Y20.32
X27.09Y35.08
X27.16Y47.488
X27.718Y45.812
X27.82Y34.28
X27.82Y24.12
X27.82Y21.58
X27.82Y2.53
X27.82Y1.26
X27.94Y19.05
X27.94Y16.51
X27.94Y13.97
X28.125Y48.707
X28.43Y29.911
X28.531Y31.08
X29.09Y27.93
X29.09Y25.39
X29.09Y22.85
X29.09Y3.8
X29.141Y47.793
X29.21Y20.32
X29.21Y17.78
X29.21Y15.24
X29.268Y2.505
X29.98Y42.14
X30.08Y43.28
X30.208Y47.793
X30.36Y24.12
X30.36Y21.58
X30.48Y19.05
X30.48Y16.51
X30.48Y13.97
X30.766Y46.066
X30.868Y29.86
X30.919Y31.04
X31.0Y7.6
X31.0Y7.0
X31.503Y44.567
X31.63Y33.264
X31.63Y27.93
X31.63Y25.39
X31.63Y22.85
X31.75Y20.32
X31.75Y17.78
X31.75Y15.24
X32.2Y7.6
X32.2Y7.0
X32.9Y46.98
X32.9Y44.44
X32.9Y31.74
X32.9Y29.2
X32.9Y24.12
X32.9Y21.58
X34.17Y48.25
X34.17Y45.71
X34.17Y43.17
X34.17Y33.264
X34.17Y30.47
X34.17Y27.93
X34.17Y25.39
X34.17Y22.85
X34.17Y10.15
X34.17Y8.88
X34.29Y20.32
X34.78Y41.494
X34.83Y37.887
X35.1Y6.7
X35.1Y5.5
X35.44Y46.98
X35.44Y44.44
X35.44Y31.74
X35.44Y29.2
X35.44Y24.12
X35.44Y21.58
X35.44Y3.8
X35.44Y2.53
X35.7Y6.1
X36.075Y38.725
X36.3Y6.7
X36.3Y5.5
X36.329Y1.031
X36.71Y48.25
X36.71Y45.71
X36.71Y43.17
X36.71Y40.63
X36.71Y30.47
X36.71Y27.93
X36.71Y25.39
X36.71Y22.85
X36.71Y3.8
X36.71Y2.53
X36.964Y33.01
X37.8Y1.6
X37.98Y34.28
X37.98Y31.74
X37.98Y29.2
X37.98Y24.12
X37.98Y21.58
X38.742Y37.43
X38.793Y47.996
X38.793Y46.726
X38.793Y45.456
X38.793Y41.9
X38.793Y40.579
X38.793Y39.309
X39.25Y33.01
X39.25Y30.47
X39.25Y27.93
X39.25Y25.39
X39.25Y22.85
X39.25Y20.31
X39.25Y19.04
X39.25Y17.77
X39.25Y16.5
X39.25Y15.23
X39.25Y13.96
X39.25Y12.69
X39.25Y11.42
X40.164Y39.309
X40.164Y37.379
X40.5Y10.1
X40.5Y9.5
X40.5Y8.9
X40.52Y48.098
X40.52Y31.74
X40.52Y29.2
X40.52Y24.12
X40.52Y21.58
X40.6Y1.6
X41.1Y10.1
X41.1Y9.5
X41.1Y8.9
X41.485Y33.975
X41.587Y39.309
X41.638Y37.734
X41.79Y30.47
X41.79Y27.93
X41.79Y25.39
X41.79Y22.85
X41.841Y48.098
X43.06Y31.74
X43.06Y29.2
X43.06Y24.12
X43.06Y21.58
X43.06Y3.8
X43.06Y1.26
X43.695Y34.28
X44.33Y33.01
X44.33Y30.47
X44.33Y27.93
X44.838Y48.148
X45.194Y39.258
X45.194Y38.141
X45.6Y34.28
X45.6Y31.74
X45.6Y29.2
X46.006Y48.148
X46.057Y36.668
X46.413Y39.258
X46.87Y38.09
X46.87Y35.55
X46.87Y33.01
X46.87Y30.47
X46.87Y27.93
X47.378Y48.098
X47.48Y46.726
X47.48Y45.608
X47.734Y42.002
X47.734Y40.681
X47.734Y39.258
X48.14Y36.82
X48.14Y34.28
X48.14Y31.74
X48.14Y29.2
X48.953Y8.931
X48.953Y6.34
T5
X3.055Y23.485
X3.055Y2.53
X46.87Y23.485
X46.87Y2.53
T0
M30
