%TF.GenerationSoftware,KiCad,Pcbnew,7.0.1*%
%TF.CreationDate,2024-01-20T12:23:47-08:00*%
%TF.ProjectId,CC1200 Dev Board,43433132-3030-4204-9465-7620426f6172,v1.0*%
%TF.SameCoordinates,PX450a6a0PY58363a0*%
%TF.FileFunction,Soldermask,Top*%
%TF.FilePolarity,Negative*%
%FSLAX46Y46*%
G04 Gerber Fmt 4.6, Leading zero omitted, Abs format (unit mm)*
G04 Created by KiCad (PCBNEW 7.0.1) date 2024-01-20 12:23:47*
%MOMM*%
%LPD*%
G01*
G04 APERTURE LIST*
G04 Aperture macros list*
%AMRoundRect*
0 Rectangle with rounded corners*
0 $1 Rounding radius*
0 $2 $3 $4 $5 $6 $7 $8 $9 X,Y pos of 4 corners*
0 Add a 4 corners polygon primitive as box body*
4,1,4,$2,$3,$4,$5,$6,$7,$8,$9,$2,$3,0*
0 Add four circle primitives for the rounded corners*
1,1,$1+$1,$2,$3*
1,1,$1+$1,$4,$5*
1,1,$1+$1,$6,$7*
1,1,$1+$1,$8,$9*
0 Add four rect primitives between the rounded corners*
20,1,$1+$1,$2,$3,$4,$5,0*
20,1,$1+$1,$4,$5,$6,$7,0*
20,1,$1+$1,$6,$7,$8,$9,0*
20,1,$1+$1,$8,$9,$2,$3,0*%
%AMFreePoly0*
4,1,13,0.449497,0.189497,0.470000,0.140000,0.470000,-0.140000,0.449497,-0.189497,0.400000,-0.210000,-0.400000,-0.210000,-0.449497,-0.189497,-0.470000,-0.140000,-0.470000,0.140000,-0.449497,0.189497,-0.400000,0.210000,0.400000,0.210000,0.449497,0.189497,0.449497,0.189497,$1*%
G04 Aperture macros list end*
%ADD10RoundRect,0.135000X-0.140000X0.180000X-0.140000X-0.180000X0.140000X-0.180000X0.140000X0.180000X0*%
%ADD11RoundRect,0.210000X-0.515000X0.440000X-0.515000X-0.440000X0.515000X-0.440000X0.515000X0.440000X0*%
%ADD12RoundRect,0.135000X-0.140000X0.295000X-0.140000X-0.295000X0.140000X-0.295000X0.140000X0.295000X0*%
%ADD13RoundRect,0.135000X0.180000X0.140000X-0.180000X0.140000X-0.180000X-0.140000X0.180000X-0.140000X0*%
%ADD14RoundRect,0.210000X0.440000X0.515000X-0.440000X0.515000X-0.440000X-0.515000X0.440000X-0.515000X0*%
%ADD15RoundRect,0.135000X0.295000X0.140000X-0.295000X0.140000X-0.295000X-0.140000X0.295000X-0.140000X0*%
%ADD16RoundRect,0.202400X0.847600X0.609600X-0.847600X0.609600X-0.847600X-0.609600X0.847600X-0.609600X0*%
%ADD17RoundRect,0.202400X-0.847600X-0.609600X0.847600X-0.609600X0.847600X0.609600X-0.847600X0.609600X0*%
%ADD18RoundRect,0.197846X0.160000X-0.197500X0.160000X0.197500X-0.160000X0.197500X-0.160000X-0.197500X0*%
%ADD19RoundRect,0.197846X-0.197500X-0.160000X0.197500X-0.160000X0.197500X0.160000X-0.197500X0.160000X0*%
%ADD20RoundRect,0.192846X-0.155000X0.212500X-0.155000X-0.212500X0.155000X-0.212500X0.155000X0.212500X0*%
%ADD21RoundRect,0.220000X-0.680000X1.080000X-0.680000X-1.080000X0.680000X-1.080000X0.680000X1.080000X0*%
%ADD22RoundRect,0.197846X0.197500X0.160000X-0.197500X0.160000X-0.197500X-0.160000X0.197500X-0.160000X0*%
%ADD23RoundRect,0.262846X0.250000X-0.225000X0.250000X0.225000X-0.250000X0.225000X-0.250000X-0.225000X0*%
%ADD24RoundRect,0.190000X0.180000X-0.430000X0.180000X0.430000X-0.180000X0.430000X-0.180000X-0.430000X0*%
%ADD25RoundRect,0.197846X0.160000X-0.222500X0.160000X0.222500X-0.160000X0.222500X-0.160000X-0.222500X0*%
%ADD26RoundRect,0.287846X-0.625000X0.312500X-0.625000X-0.312500X0.625000X-0.312500X0.625000X0.312500X0*%
%ADD27RoundRect,0.197846X-0.222500X-0.160000X0.222500X-0.160000X0.222500X0.160000X-0.222500X0.160000X0*%
%ADD28RoundRect,0.170000X0.330000X-0.280000X0.330000X0.280000X-0.330000X0.280000X-0.330000X-0.280000X0*%
%ADD29RoundRect,0.192846X0.155000X-0.212500X0.155000X0.212500X-0.155000X0.212500X-0.155000X-0.212500X0*%
%ADD30RoundRect,0.800000X0.800000X0.700000X-0.800000X0.700000X-0.800000X-0.700000X0.800000X-0.700000X0*%
%ADD31RoundRect,0.287846X-0.650000X0.325000X-0.650000X-0.325000X0.650000X-0.325000X0.650000X0.325000X0*%
%ADD32RoundRect,0.037846X-1.575000X-0.500000X1.575000X-0.500000X1.575000X0.500000X-1.575000X0.500000X0*%
%ADD33RoundRect,0.197846X-0.160000X0.222500X-0.160000X-0.222500X0.160000X-0.222500X0.160000X0.222500X0*%
%ADD34RoundRect,0.192846X0.212500X0.155000X-0.212500X0.155000X-0.212500X-0.155000X0.212500X-0.155000X0*%
%ADD35RoundRect,0.192846X-0.212500X-0.155000X0.212500X-0.155000X0.212500X0.155000X-0.212500X0.155000X0*%
%ADD36RoundRect,0.475000X0.625000X0.375000X-0.625000X0.375000X-0.625000X-0.375000X0.625000X-0.375000X0*%
%ADD37RoundRect,1.350000X-1.250000X1.250000X-1.250000X-1.250000X1.250000X-1.250000X1.250000X1.250000X0*%
%ADD38C,3.885692*%
%ADD39RoundRect,0.197846X-0.160000X0.197500X-0.160000X-0.197500X0.160000X-0.197500X0.160000X0.197500X0*%
%ADD40RoundRect,0.237846X0.200000X0.275000X-0.200000X0.275000X-0.200000X-0.275000X0.200000X-0.275000X0*%
%ADD41RoundRect,0.070000X-1.070000X1.070000X-1.070000X-1.070000X1.070000X-1.070000X1.070000X1.070000X0*%
%ADD42FreePoly0,0.000000*%
%ADD43FreePoly0,90.000000*%
%ADD44FreePoly0,180.000000*%
%ADD45FreePoly0,270.000000*%
%ADD46RoundRect,0.250000X-0.200000X-0.300000X0.200000X-0.300000X0.200000X0.300000X-0.200000X0.300000X0*%
%ADD47RoundRect,0.130000X0.320000X-0.320000X0.320000X0.320000X-0.320000X0.320000X-0.320000X-0.320000X0*%
%ADD48RoundRect,0.132500X-0.062500X0.237500X-0.062500X-0.237500X0.062500X-0.237500X0.062500X0.237500X0*%
%ADD49RoundRect,0.132500X0.237500X0.062500X-0.237500X0.062500X-0.237500X-0.062500X0.237500X-0.062500X0*%
%ADD50RoundRect,0.132500X0.062500X-0.237500X0.062500X0.237500X-0.062500X0.237500X-0.062500X-0.237500X0*%
%ADD51RoundRect,0.132500X-0.237500X-0.062500X0.237500X-0.062500X0.237500X0.062500X-0.237500X0.062500X0*%
%ADD52RoundRect,0.242500X-1.552500X1.552500X-1.552500X-1.552500X1.552500X-1.552500X1.552500X1.552500X0*%
%ADD53C,2.463800*%
%ADD54RoundRect,0.497840X-0.975360X-0.975360X0.975360X-0.975360X0.975360X0.975360X-0.975360X0.975360X0*%
G04 APERTURE END LIST*
D10*
%TO.C,Q1*%
X17825000Y13540000D03*
X18475000Y13540000D03*
X19125000Y13540000D03*
X19125000Y15410000D03*
X18475000Y15410000D03*
X17825000Y15410000D03*
D11*
X18190000Y14475000D03*
D12*
X19250000Y14475000D03*
%TD*%
D13*
%TO.C,Q2*%
X20130000Y15350000D03*
X20130000Y14700000D03*
X20130000Y14050000D03*
X22000000Y14050000D03*
X22000000Y14700000D03*
X22000000Y15350000D03*
D14*
X21065000Y14985000D03*
D15*
X21065000Y13925000D03*
%TD*%
D16*
%TO.C,J4*%
X24321600Y3600000D03*
X21321600Y3600000D03*
%TD*%
D17*
%TO.C,J5*%
X21300000Y1517200D03*
X24300000Y1517200D03*
%TD*%
D18*
%TO.C,R13*%
X14600000Y5502500D03*
X14600000Y6697500D03*
%TD*%
D19*
%TO.C,R4*%
X20377500Y47802800D03*
X21572500Y47802800D03*
%TD*%
D20*
%TO.C,C33*%
X16600000Y10567500D03*
X16600000Y9432500D03*
%TD*%
D21*
%TO.C,D4*%
X11500000Y13000000D03*
X11500000Y17000000D03*
%TD*%
D22*
%TO.C,R3*%
X19272500Y32302800D03*
X18077500Y32302800D03*
%TD*%
D23*
%TO.C,C30*%
X16300000Y15700000D03*
X16300000Y14150000D03*
%TD*%
D24*
%TO.C,U3*%
X37750000Y3700000D03*
X38700000Y3700000D03*
X39650000Y3700000D03*
X39650000Y6300000D03*
X37750000Y6300000D03*
%TD*%
D25*
%TO.C,L7*%
X43212400Y35790300D03*
X43212400Y36935300D03*
%TD*%
D26*
%TO.C,R9*%
X14400000Y13362500D03*
X14400000Y10437500D03*
%TD*%
D27*
%TO.C,L6*%
X38728300Y35804000D03*
X39873300Y35804000D03*
%TD*%
D28*
%TO.C,D1*%
X24670400Y9235600D03*
X24670400Y11135600D03*
X22670400Y10185600D03*
%TD*%
D29*
%TO.C,C23*%
X27180000Y45792500D03*
X27180000Y46927500D03*
%TD*%
D30*
%TO.C,L9*%
X24803600Y16804800D03*
X35103600Y16804800D03*
%TD*%
D31*
%TO.C,C27*%
X30900000Y5675000D03*
X30900000Y2725000D03*
%TD*%
D20*
%TO.C,C13*%
X30275000Y33470300D03*
X30275000Y32335300D03*
%TD*%
D29*
%TO.C,C14*%
X30275000Y29902800D03*
X30275000Y31037800D03*
%TD*%
D32*
%TO.C,J1*%
X6950000Y45222800D03*
X12000000Y45222800D03*
X6950000Y42682800D03*
X12000000Y42682800D03*
X6950000Y40142800D03*
X12000000Y40142800D03*
X6950000Y37602800D03*
X12000000Y37602800D03*
X6950000Y35062800D03*
X12000000Y35062800D03*
X6950000Y32522800D03*
X12000000Y32522800D03*
X6950000Y29982800D03*
X12000000Y29982800D03*
%TD*%
D18*
%TO.C,R2*%
X29075000Y32272800D03*
X29075000Y33467800D03*
%TD*%
D20*
%TO.C,C20*%
X26375000Y35070300D03*
X26375000Y33935300D03*
%TD*%
%TO.C,C12*%
X44431600Y36930300D03*
X44431600Y35795300D03*
%TD*%
D29*
%TO.C,C15*%
X29075000Y29935300D03*
X29075000Y31070300D03*
%TD*%
D33*
%TO.C,L1*%
X30275000Y40222500D03*
X30275000Y39077500D03*
%TD*%
D20*
%TO.C,C5*%
X28175000Y42970300D03*
X28175000Y41835300D03*
%TD*%
D33*
%TO.C,L4*%
X37130000Y39642500D03*
X37130000Y38497500D03*
%TD*%
D26*
%TO.C,R6*%
X27700000Y8662500D03*
X27700000Y5737500D03*
%TD*%
D34*
%TO.C,C21*%
X18810000Y40402800D03*
X17675000Y40402800D03*
%TD*%
D35*
%TO.C,C10*%
X30749000Y35804000D03*
X31884000Y35804000D03*
%TD*%
D36*
%TO.C,RST*%
X25163600Y23866000D03*
X16963600Y23866000D03*
%TD*%
D20*
%TO.C,C34*%
X16700000Y5467500D03*
X16700000Y4332500D03*
%TD*%
D37*
%TO.C,J2*%
X5000000Y18000000D03*
X5000000Y8000000D03*
%TD*%
D27*
%TO.C,L3*%
X33010000Y37875000D03*
X34155000Y37875000D03*
%TD*%
D38*
%TO.C,REF\u002A\u002A*%
X46870000Y23485000D03*
%TD*%
%TO.C,*%
X46870000Y2530000D03*
%TD*%
D37*
%TO.C,J3*%
X45169600Y17994800D03*
X45169600Y7994800D03*
%TD*%
D39*
%TO.C,R12*%
X15600000Y6697500D03*
X15600000Y5502500D03*
%TD*%
D29*
%TO.C,C36*%
X25800000Y6532500D03*
X25800000Y7667500D03*
%TD*%
D40*
%TO.C,R17*%
X39425000Y9500000D03*
X37775000Y9500000D03*
%TD*%
D41*
%TO.C,U2*%
X19650000Y7650000D03*
D42*
X17900000Y8400000D03*
X17900000Y7900000D03*
X17900000Y7400000D03*
X17900000Y6900000D03*
D43*
X19400000Y5900000D03*
X18900000Y5900000D03*
X19900000Y5900000D03*
X20400000Y5900000D03*
D44*
X21400000Y6900000D03*
X21400000Y7400000D03*
X21400000Y7900000D03*
X21400000Y8400000D03*
D45*
X20400000Y9400000D03*
X19900000Y9400000D03*
X19400000Y9400000D03*
X18900000Y9400000D03*
%TD*%
D20*
%TO.C,C1*%
X24470000Y45357500D03*
X24470000Y44222500D03*
%TD*%
%TO.C,C18*%
X21875000Y34470300D03*
X21875000Y33335300D03*
%TD*%
D36*
%TO.C,RST*%
X26275000Y29602800D03*
X18075000Y29602800D03*
%TD*%
D35*
%TO.C,C6*%
X33015000Y39075000D03*
X34150000Y39075000D03*
%TD*%
D29*
%TO.C,C24*%
X26170000Y45782500D03*
X26170000Y46917500D03*
%TD*%
D35*
%TO.C,C7*%
X33015000Y41475000D03*
X34150000Y41475000D03*
%TD*%
D46*
%TO.C,X1*%
X19375000Y46550300D03*
X21475000Y46550300D03*
X21475000Y45150300D03*
X19375000Y45150300D03*
%TD*%
D27*
%TO.C,L5*%
X33343500Y35804000D03*
X34488500Y35804000D03*
%TD*%
D20*
%TO.C,C3*%
X31540000Y43557500D03*
X31540000Y42422500D03*
%TD*%
%TO.C,C2*%
X29130000Y47187500D03*
X29130000Y46052500D03*
%TD*%
D29*
%TO.C,C26*%
X29275000Y42135300D03*
X29275000Y43270300D03*
%TD*%
D20*
%TO.C,C19*%
X23075000Y34470300D03*
X23075000Y33335300D03*
%TD*%
D47*
%TO.C,D2*%
X17400000Y2600000D03*
X17400000Y1000000D03*
%TD*%
D35*
%TO.C,C9*%
X33348500Y34534000D03*
X34483500Y34534000D03*
%TD*%
D29*
%TO.C,C16*%
X22725000Y43982800D03*
X22725000Y45117800D03*
%TD*%
D18*
%TO.C,R1*%
X25200000Y33902500D03*
X25200000Y35097500D03*
%TD*%
D33*
%TO.C,L8*%
X29075000Y36542800D03*
X29075000Y35397800D03*
%TD*%
D34*
%TO.C,C37*%
X39767500Y1600000D03*
X38632500Y1600000D03*
%TD*%
D39*
%TO.C,R15*%
X12200000Y2102600D03*
X12200000Y907600D03*
%TD*%
D48*
%TO.C,U1*%
X22775000Y42552800D03*
X23275000Y42552800D03*
X23775000Y42552800D03*
X24275000Y42552800D03*
X24775000Y42552800D03*
X25275000Y42552800D03*
X25775000Y42552800D03*
X26275000Y42552800D03*
D49*
X26925000Y41902800D03*
X26925000Y41402800D03*
X26925000Y40902800D03*
X26925000Y40402800D03*
X26925000Y39902800D03*
X26925000Y39402800D03*
X26925000Y38902800D03*
X26925000Y38402800D03*
D50*
X26275000Y37752800D03*
X25775000Y37752800D03*
X25275000Y37752800D03*
X24775000Y37752800D03*
X24275000Y37752800D03*
X23775000Y37752800D03*
X23275000Y37752800D03*
X22775000Y37752800D03*
D51*
X22125000Y38402800D03*
X22125000Y38902800D03*
X22125000Y39402800D03*
X22125000Y39902800D03*
X22125000Y40402800D03*
X22125000Y40902800D03*
X22125000Y41402800D03*
X22125000Y41902800D03*
D52*
X24525000Y40152800D03*
%TD*%
D29*
%TO.C,C17*%
X18225000Y45232800D03*
X18225000Y46367800D03*
%TD*%
D53*
%TO.C,ANT*%
X43207500Y43812800D03*
D54*
X40540500Y46479800D03*
X45874500Y46479800D03*
X45874500Y41145800D03*
X40540500Y41145800D03*
%TD*%
D18*
%TO.C,R5*%
X16975000Y45202800D03*
X16975000Y46397800D03*
%TD*%
D29*
%TO.C,C22*%
X20620000Y42722500D03*
X20620000Y43857500D03*
%TD*%
D38*
%TO.C,*%
X3055000Y23485000D03*
%TD*%
D20*
%TO.C,C8*%
X37116400Y36930300D03*
X37116400Y35795300D03*
%TD*%
D29*
%TO.C,C25*%
X30230000Y46052500D03*
X30230000Y47187500D03*
%TD*%
D35*
%TO.C,C4*%
X17675000Y39402800D03*
X18810000Y39402800D03*
%TD*%
D29*
%TO.C,C11*%
X41485200Y34626900D03*
X41485200Y35761900D03*
%TD*%
D47*
%TO.C,D3*%
X13400000Y2500000D03*
X13400000Y900000D03*
%TD*%
D31*
%TO.C,C28*%
X33500000Y5675000D03*
X33500000Y2725000D03*
%TD*%
D27*
%TO.C,L2*%
X33010000Y40275000D03*
X34155000Y40275000D03*
%TD*%
D39*
%TO.C,R14*%
X18600000Y2200000D03*
X18600000Y1005000D03*
%TD*%
D38*
%TO.C,*%
X3055000Y2530000D03*
%TD*%
G36*
X20191111Y6297726D02*
G01*
X20192000Y6296063D01*
X20192000Y5503939D01*
X20191111Y5502276D01*
X20189235Y5502091D01*
X20188038Y5503549D01*
X20181188Y5537984D01*
X20118812Y5537984D01*
X20111962Y5503551D01*
X20110765Y5502093D01*
X20108889Y5502278D01*
X20108000Y5503941D01*
X20108000Y6296061D01*
X20108889Y6297724D01*
X20110765Y6297909D01*
X20111962Y6296451D01*
X20118812Y6262017D01*
X20181188Y6262017D01*
X20188038Y6296453D01*
X20189235Y6297911D01*
X20191111Y6297726D01*
G37*
G36*
X19691111Y6297726D02*
G01*
X19692000Y6296063D01*
X19692000Y5503939D01*
X19691111Y5502276D01*
X19689235Y5502091D01*
X19688038Y5503549D01*
X19681188Y5537984D01*
X19618812Y5537984D01*
X19611962Y5503551D01*
X19610765Y5502093D01*
X19608889Y5502278D01*
X19608000Y5503941D01*
X19608000Y6296061D01*
X19608889Y6297724D01*
X19610765Y6297909D01*
X19611962Y6296451D01*
X19618812Y6262017D01*
X19681188Y6262017D01*
X19688038Y6296453D01*
X19689235Y6297911D01*
X19691111Y6297726D01*
G37*
G36*
X19191111Y6297726D02*
G01*
X19192000Y6296063D01*
X19192000Y5503939D01*
X19191111Y5502276D01*
X19189235Y5502091D01*
X19188038Y5503549D01*
X19181188Y5537984D01*
X19118812Y5537984D01*
X19111962Y5503551D01*
X19110765Y5502093D01*
X19108889Y5502278D01*
X19108000Y5503941D01*
X19108000Y6296061D01*
X19108889Y6297724D01*
X19110765Y6297909D01*
X19111962Y6296451D01*
X19118812Y6262017D01*
X19181188Y6262017D01*
X19188038Y6296453D01*
X19189235Y6297911D01*
X19191111Y6297726D01*
G37*
G36*
X21797722Y7191111D02*
G01*
X21797907Y7189235D01*
X21796449Y7188038D01*
X21762016Y7181188D01*
X21762016Y7118812D01*
X21796452Y7111962D01*
X21797910Y7110765D01*
X21797725Y7108889D01*
X21796062Y7108000D01*
X21003937Y7108000D01*
X21002274Y7108889D01*
X21002089Y7110765D01*
X21003547Y7111962D01*
X21037983Y7118812D01*
X21037983Y7181188D01*
X21003550Y7188038D01*
X21002092Y7189235D01*
X21002277Y7191111D01*
X21003940Y7192000D01*
X21796059Y7192000D01*
X21797722Y7191111D01*
G37*
G36*
X18297722Y7191111D02*
G01*
X18297907Y7189235D01*
X18296449Y7188038D01*
X18262016Y7181188D01*
X18262016Y7118812D01*
X18296452Y7111962D01*
X18297910Y7110765D01*
X18297725Y7108889D01*
X18296062Y7108000D01*
X17503937Y7108000D01*
X17502274Y7108889D01*
X17502089Y7110765D01*
X17503547Y7111962D01*
X17537983Y7118812D01*
X17537983Y7181188D01*
X17503550Y7188038D01*
X17502092Y7189235D01*
X17502277Y7191111D01*
X17503940Y7192000D01*
X18296059Y7192000D01*
X18297722Y7191111D01*
G37*
G36*
X21797722Y7691111D02*
G01*
X21797907Y7689235D01*
X21796449Y7688038D01*
X21762016Y7681188D01*
X21762016Y7618812D01*
X21796452Y7611962D01*
X21797910Y7610765D01*
X21797725Y7608889D01*
X21796062Y7608000D01*
X21003937Y7608000D01*
X21002274Y7608889D01*
X21002089Y7610765D01*
X21003547Y7611962D01*
X21037983Y7618812D01*
X21037983Y7681188D01*
X21003550Y7688038D01*
X21002092Y7689235D01*
X21002277Y7691111D01*
X21003940Y7692000D01*
X21796059Y7692000D01*
X21797722Y7691111D01*
G37*
G36*
X18297722Y7691111D02*
G01*
X18297907Y7689235D01*
X18296449Y7688038D01*
X18262016Y7681188D01*
X18262016Y7618812D01*
X18296452Y7611962D01*
X18297910Y7610765D01*
X18297725Y7608889D01*
X18296062Y7608000D01*
X17503937Y7608000D01*
X17502274Y7608889D01*
X17502089Y7610765D01*
X17503547Y7611962D01*
X17537983Y7618812D01*
X17537983Y7681188D01*
X17503550Y7688038D01*
X17502092Y7689235D01*
X17502277Y7691111D01*
X17503940Y7692000D01*
X18296059Y7692000D01*
X18297722Y7691111D01*
G37*
G36*
X21797722Y8191111D02*
G01*
X21797907Y8189235D01*
X21796449Y8188038D01*
X21762016Y8181188D01*
X21762016Y8118812D01*
X21796452Y8111962D01*
X21797910Y8110765D01*
X21797725Y8108889D01*
X21796062Y8108000D01*
X21003937Y8108000D01*
X21002274Y8108889D01*
X21002089Y8110765D01*
X21003547Y8111962D01*
X21037983Y8118812D01*
X21037983Y8181188D01*
X21003550Y8188038D01*
X21002092Y8189235D01*
X21002277Y8191111D01*
X21003940Y8192000D01*
X21796059Y8192000D01*
X21797722Y8191111D01*
G37*
G36*
X18297722Y8191111D02*
G01*
X18297907Y8189235D01*
X18296449Y8188038D01*
X18262016Y8181188D01*
X18262016Y8118812D01*
X18296452Y8111962D01*
X18297910Y8110765D01*
X18297725Y8108889D01*
X18296062Y8108000D01*
X17503937Y8108000D01*
X17502274Y8108889D01*
X17502089Y8110765D01*
X17503547Y8111962D01*
X17537983Y8118812D01*
X17537983Y8181188D01*
X17503550Y8188038D01*
X17502092Y8189235D01*
X17502277Y8191111D01*
X17503940Y8192000D01*
X18296059Y8192000D01*
X18297722Y8191111D01*
G37*
G36*
X20191111Y9797726D02*
G01*
X20192000Y9796063D01*
X20192000Y9003939D01*
X20191111Y9002276D01*
X20189235Y9002091D01*
X20188038Y9003549D01*
X20181188Y9037984D01*
X20118812Y9037984D01*
X20111962Y9003551D01*
X20110765Y9002093D01*
X20108889Y9002278D01*
X20108000Y9003941D01*
X20108000Y9796061D01*
X20108889Y9797724D01*
X20110765Y9797909D01*
X20111962Y9796451D01*
X20118812Y9762017D01*
X20181188Y9762017D01*
X20188038Y9796453D01*
X20189235Y9797911D01*
X20191111Y9797726D01*
G37*
G36*
X19691111Y9797726D02*
G01*
X19692000Y9796063D01*
X19692000Y9003939D01*
X19691111Y9002276D01*
X19689235Y9002091D01*
X19688038Y9003549D01*
X19681188Y9037984D01*
X19618812Y9037984D01*
X19611962Y9003551D01*
X19610765Y9002093D01*
X19608889Y9002278D01*
X19608000Y9003941D01*
X19608000Y9796061D01*
X19608889Y9797724D01*
X19610765Y9797909D01*
X19611962Y9796451D01*
X19618812Y9762017D01*
X19681188Y9762017D01*
X19688038Y9796453D01*
X19689235Y9797911D01*
X19691111Y9797726D01*
G37*
G36*
X19191111Y9797726D02*
G01*
X19192000Y9796063D01*
X19192000Y9003939D01*
X19191111Y9002276D01*
X19189235Y9002091D01*
X19188038Y9003549D01*
X19181188Y9037984D01*
X19118812Y9037984D01*
X19111962Y9003551D01*
X19110765Y9002093D01*
X19108889Y9002278D01*
X19108000Y9003941D01*
X19108000Y9796061D01*
X19108889Y9797724D01*
X19110765Y9797909D01*
X19111962Y9796451D01*
X19118812Y9762017D01*
X19181188Y9762017D01*
X19188038Y9796453D01*
X19189235Y9797911D01*
X19191111Y9797726D01*
G37*
G36*
X18986388Y14821013D02*
G01*
X18986846Y14819304D01*
X18977000Y14769801D01*
X18977000Y14180199D01*
X18986846Y14130698D01*
X18986388Y14128989D01*
X18984753Y14128312D01*
X18983221Y14129197D01*
X18970944Y14147571D01*
X18915581Y14130776D01*
X18913809Y14131084D01*
X18913000Y14132690D01*
X18913000Y14817310D01*
X18913809Y14818916D01*
X18915581Y14819224D01*
X18970944Y14802430D01*
X18983221Y14820805D01*
X18984753Y14821690D01*
X18986388Y14821013D01*
G37*
G36*
X21408916Y14261191D02*
G01*
X21409224Y14259419D01*
X21392429Y14204056D01*
X21410803Y14191779D01*
X21411688Y14190247D01*
X21411011Y14188612D01*
X21409302Y14188154D01*
X21359801Y14198000D01*
X20770199Y14198000D01*
X20720696Y14188154D01*
X20718987Y14188612D01*
X20718310Y14190247D01*
X20719195Y14191779D01*
X20737570Y14204056D01*
X20720776Y14259419D01*
X20721084Y14261191D01*
X20722690Y14262000D01*
X21407310Y14262000D01*
X21408916Y14261191D01*
G37*
M02*
