%TF.GenerationSoftware,KiCad,Pcbnew,7.0.1*%
%TF.CreationDate,2024-01-20T12:23:47-08:00*%
%TF.ProjectId,CC1200 Dev Board,43433132-3030-4204-9465-7620426f6172,v1.0*%
%TF.SameCoordinates,PX450a6a0PY58363a0*%
%TF.FileFunction,Legend,Bot*%
%TF.FilePolarity,Positive*%
%FSLAX46Y46*%
G04 Gerber Fmt 4.6, Leading zero omitted, Abs format (unit mm)*
G04 Created by KiCad (PCBNEW 7.0.1) date 2024-01-20 12:23:47*
%MOMM*%
%LPD*%
G01*
G04 APERTURE LIST*
%ADD10C,0.200000*%
%ADD11C,0.152400*%
G04 APERTURE END LIST*
D10*
X457200Y26517600D02*
X49631600Y26517600D01*
D11*
X41035257Y5244716D02*
X40871971Y5190288D01*
X40871971Y5190288D02*
X40817542Y5135859D01*
X40817542Y5135859D02*
X40763114Y5027002D01*
X40763114Y5027002D02*
X40763114Y4863716D01*
X40763114Y4863716D02*
X40817542Y4754859D01*
X40817542Y4754859D02*
X40871971Y4700430D01*
X40871971Y4700430D02*
X40980828Y4646002D01*
X40980828Y4646002D02*
X41416257Y4646002D01*
X41416257Y4646002D02*
X41416257Y5789002D01*
X41416257Y5789002D02*
X41035257Y5789002D01*
X41035257Y5789002D02*
X40926400Y5734573D01*
X40926400Y5734573D02*
X40871971Y5680145D01*
X40871971Y5680145D02*
X40817542Y5571288D01*
X40817542Y5571288D02*
X40817542Y5462430D01*
X40817542Y5462430D02*
X40871971Y5353573D01*
X40871971Y5353573D02*
X40926400Y5299145D01*
X40926400Y5299145D02*
X41035257Y5244716D01*
X41035257Y5244716D02*
X41416257Y5244716D01*
X39511257Y4537145D02*
X39620114Y4591573D01*
X39620114Y4591573D02*
X39728971Y4700430D01*
X39728971Y4700430D02*
X39892257Y4863716D01*
X39892257Y4863716D02*
X40001114Y4918145D01*
X40001114Y4918145D02*
X40109971Y4918145D01*
X40055542Y4646002D02*
X40164400Y4700430D01*
X40164400Y4700430D02*
X40273257Y4809288D01*
X40273257Y4809288D02*
X40327685Y5027002D01*
X40327685Y5027002D02*
X40327685Y5408002D01*
X40327685Y5408002D02*
X40273257Y5625716D01*
X40273257Y5625716D02*
X40164400Y5734573D01*
X40164400Y5734573D02*
X40055542Y5789002D01*
X40055542Y5789002D02*
X39837828Y5789002D01*
X39837828Y5789002D02*
X39728971Y5734573D01*
X39728971Y5734573D02*
X39620114Y5625716D01*
X39620114Y5625716D02*
X39565685Y5408002D01*
X39565685Y5408002D02*
X39565685Y5027002D01*
X39565685Y5027002D02*
X39620114Y4809288D01*
X39620114Y4809288D02*
X39728971Y4700430D01*
X39728971Y4700430D02*
X39837828Y4646002D01*
X39837828Y4646002D02*
X40055542Y4646002D01*
X39130256Y5680145D02*
X39075828Y5734573D01*
X39075828Y5734573D02*
X38966971Y5789002D01*
X38966971Y5789002D02*
X38694828Y5789002D01*
X38694828Y5789002D02*
X38585971Y5734573D01*
X38585971Y5734573D02*
X38531542Y5680145D01*
X38531542Y5680145D02*
X38477113Y5571288D01*
X38477113Y5571288D02*
X38477113Y5462430D01*
X38477113Y5462430D02*
X38531542Y5299145D01*
X38531542Y5299145D02*
X39184685Y4646002D01*
X39184685Y4646002D02*
X38477113Y4646002D01*
X37497400Y5408002D02*
X37497400Y4646002D01*
X37769542Y5843430D02*
X38041685Y5027002D01*
X38041685Y5027002D02*
X37334114Y5027002D01*
X36408829Y5789002D02*
X36626543Y5789002D01*
X36626543Y5789002D02*
X36735400Y5734573D01*
X36735400Y5734573D02*
X36789829Y5680145D01*
X36789829Y5680145D02*
X36898686Y5516859D01*
X36898686Y5516859D02*
X36953114Y5299145D01*
X36953114Y5299145D02*
X36953114Y4863716D01*
X36953114Y4863716D02*
X36898686Y4754859D01*
X36898686Y4754859D02*
X36844257Y4700430D01*
X36844257Y4700430D02*
X36735400Y4646002D01*
X36735400Y4646002D02*
X36517686Y4646002D01*
X36517686Y4646002D02*
X36408829Y4700430D01*
X36408829Y4700430D02*
X36354400Y4754859D01*
X36354400Y4754859D02*
X36299971Y4863716D01*
X36299971Y4863716D02*
X36299971Y5135859D01*
X36299971Y5135859D02*
X36354400Y5244716D01*
X36354400Y5244716D02*
X36408829Y5299145D01*
X36408829Y5299145D02*
X36517686Y5353573D01*
X36517686Y5353573D02*
X36735400Y5353573D01*
X36735400Y5353573D02*
X36844257Y5299145D01*
X36844257Y5299145D02*
X36898686Y5244716D01*
X36898686Y5244716D02*
X36953114Y5135859D01*
X35265829Y5789002D02*
X35810115Y5789002D01*
X35810115Y5789002D02*
X35864543Y5244716D01*
X35864543Y5244716D02*
X35810115Y5299145D01*
X35810115Y5299145D02*
X35701258Y5353573D01*
X35701258Y5353573D02*
X35429115Y5353573D01*
X35429115Y5353573D02*
X35320258Y5299145D01*
X35320258Y5299145D02*
X35265829Y5244716D01*
X35265829Y5244716D02*
X35211400Y5135859D01*
X35211400Y5135859D02*
X35211400Y4863716D01*
X35211400Y4863716D02*
X35265829Y4754859D01*
X35265829Y4754859D02*
X35320258Y4700430D01*
X35320258Y4700430D02*
X35429115Y4646002D01*
X35429115Y4646002D02*
X35701258Y4646002D01*
X35701258Y4646002D02*
X35810115Y4700430D01*
X35810115Y4700430D02*
X35864543Y4754859D01*
X34503829Y5789002D02*
X34394972Y5789002D01*
X34394972Y5789002D02*
X34286115Y5734573D01*
X34286115Y5734573D02*
X34231687Y5680145D01*
X34231687Y5680145D02*
X34177258Y5571288D01*
X34177258Y5571288D02*
X34122829Y5353573D01*
X34122829Y5353573D02*
X34122829Y5081430D01*
X34122829Y5081430D02*
X34177258Y4863716D01*
X34177258Y4863716D02*
X34231687Y4754859D01*
X34231687Y4754859D02*
X34286115Y4700430D01*
X34286115Y4700430D02*
X34394972Y4646002D01*
X34394972Y4646002D02*
X34503829Y4646002D01*
X34503829Y4646002D02*
X34612687Y4700430D01*
X34612687Y4700430D02*
X34667115Y4754859D01*
X34667115Y4754859D02*
X34721544Y4863716D01*
X34721544Y4863716D02*
X34775972Y5081430D01*
X34775972Y5081430D02*
X34775972Y5353573D01*
X34775972Y5353573D02*
X34721544Y5571288D01*
X34721544Y5571288D02*
X34667115Y5680145D01*
X34667115Y5680145D02*
X34612687Y5734573D01*
X34612687Y5734573D02*
X34503829Y5789002D01*
X32816544Y4700430D02*
X32653259Y4646002D01*
X32653259Y4646002D02*
X32381116Y4646002D01*
X32381116Y4646002D02*
X32272259Y4700430D01*
X32272259Y4700430D02*
X32217830Y4754859D01*
X32217830Y4754859D02*
X32163401Y4863716D01*
X32163401Y4863716D02*
X32163401Y4972573D01*
X32163401Y4972573D02*
X32217830Y5081430D01*
X32217830Y5081430D02*
X32272259Y5135859D01*
X32272259Y5135859D02*
X32381116Y5190288D01*
X32381116Y5190288D02*
X32598830Y5244716D01*
X32598830Y5244716D02*
X32707687Y5299145D01*
X32707687Y5299145D02*
X32762116Y5353573D01*
X32762116Y5353573D02*
X32816544Y5462430D01*
X32816544Y5462430D02*
X32816544Y5571288D01*
X32816544Y5571288D02*
X32762116Y5680145D01*
X32762116Y5680145D02*
X32707687Y5734573D01*
X32707687Y5734573D02*
X32598830Y5789002D01*
X32598830Y5789002D02*
X32326687Y5789002D01*
X32326687Y5789002D02*
X32163401Y5734573D01*
X31455830Y5789002D02*
X31238116Y5789002D01*
X31238116Y5789002D02*
X31129259Y5734573D01*
X31129259Y5734573D02*
X31020402Y5625716D01*
X31020402Y5625716D02*
X30965973Y5408002D01*
X30965973Y5408002D02*
X30965973Y5027002D01*
X30965973Y5027002D02*
X31020402Y4809288D01*
X31020402Y4809288D02*
X31129259Y4700430D01*
X31129259Y4700430D02*
X31238116Y4646002D01*
X31238116Y4646002D02*
X31455830Y4646002D01*
X31455830Y4646002D02*
X31564688Y4700430D01*
X31564688Y4700430D02*
X31673545Y4809288D01*
X31673545Y4809288D02*
X31727973Y5027002D01*
X31727973Y5027002D02*
X31727973Y5408002D01*
X31727973Y5408002D02*
X31673545Y5625716D01*
X31673545Y5625716D02*
X31564688Y5734573D01*
X31564688Y5734573D02*
X31455830Y5789002D01*
X29931830Y4646002D02*
X30476116Y4646002D01*
X30476116Y4646002D02*
X30476116Y5789002D01*
X29605258Y4972573D02*
X29060973Y4972573D01*
X29714115Y4646002D02*
X29333115Y5789002D01*
X29333115Y5789002D02*
X28952115Y4646002D01*
X27917973Y4646002D02*
X28298973Y5190288D01*
X28571116Y4646002D02*
X28571116Y5789002D01*
X28571116Y5789002D02*
X28135687Y5789002D01*
X28135687Y5789002D02*
X28026830Y5734573D01*
X28026830Y5734573D02*
X27972401Y5680145D01*
X27972401Y5680145D02*
X27917973Y5571288D01*
X27917973Y5571288D02*
X27917973Y5408002D01*
X27917973Y5408002D02*
X27972401Y5299145D01*
X27972401Y5299145D02*
X28026830Y5244716D01*
X28026830Y5244716D02*
X28135687Y5190288D01*
X28135687Y5190288D02*
X28571116Y5190288D01*
X25904116Y4754859D02*
X25958544Y4700430D01*
X25958544Y4700430D02*
X26121830Y4646002D01*
X26121830Y4646002D02*
X26230687Y4646002D01*
X26230687Y4646002D02*
X26393973Y4700430D01*
X26393973Y4700430D02*
X26502830Y4809288D01*
X26502830Y4809288D02*
X26557259Y4918145D01*
X26557259Y4918145D02*
X26611687Y5135859D01*
X26611687Y5135859D02*
X26611687Y5299145D01*
X26611687Y5299145D02*
X26557259Y5516859D01*
X26557259Y5516859D02*
X26502830Y5625716D01*
X26502830Y5625716D02*
X26393973Y5734573D01*
X26393973Y5734573D02*
X26230687Y5789002D01*
X26230687Y5789002D02*
X26121830Y5789002D01*
X26121830Y5789002D02*
X25958544Y5734573D01*
X25958544Y5734573D02*
X25904116Y5680145D01*
X25414259Y4646002D02*
X25414259Y5789002D01*
X25414259Y5244716D02*
X24761116Y5244716D01*
X24761116Y4646002D02*
X24761116Y5789002D01*
X23618115Y5734573D02*
X23726973Y5789002D01*
X23726973Y5789002D02*
X23890258Y5789002D01*
X23890258Y5789002D02*
X24053544Y5734573D01*
X24053544Y5734573D02*
X24162401Y5625716D01*
X24162401Y5625716D02*
X24216830Y5516859D01*
X24216830Y5516859D02*
X24271258Y5299145D01*
X24271258Y5299145D02*
X24271258Y5135859D01*
X24271258Y5135859D02*
X24216830Y4918145D01*
X24216830Y4918145D02*
X24162401Y4809288D01*
X24162401Y4809288D02*
X24053544Y4700430D01*
X24053544Y4700430D02*
X23890258Y4646002D01*
X23890258Y4646002D02*
X23781401Y4646002D01*
X23781401Y4646002D02*
X23618115Y4700430D01*
X23618115Y4700430D02*
X23563687Y4754859D01*
X23563687Y4754859D02*
X23563687Y5135859D01*
X23563687Y5135859D02*
X23781401Y5135859D01*
X22420687Y4646002D02*
X22801687Y5190288D01*
X23073830Y4646002D02*
X23073830Y5789002D01*
X23073830Y5789002D02*
X22638401Y5789002D01*
X22638401Y5789002D02*
X22529544Y5734573D01*
X22529544Y5734573D02*
X22475115Y5680145D01*
X22475115Y5680145D02*
X22420687Y5571288D01*
X22420687Y5571288D02*
X22420687Y5408002D01*
X22420687Y5408002D02*
X22475115Y5299145D01*
X22475115Y5299145D02*
X22529544Y5244716D01*
X22529544Y5244716D02*
X22638401Y5190288D01*
X22638401Y5190288D02*
X23073830Y5190288D01*
X40763114Y2903199D02*
X40817542Y2848770D01*
X40817542Y2848770D02*
X40980828Y2794342D01*
X40980828Y2794342D02*
X41089685Y2794342D01*
X41089685Y2794342D02*
X41252971Y2848770D01*
X41252971Y2848770D02*
X41361828Y2957628D01*
X41361828Y2957628D02*
X41416257Y3066485D01*
X41416257Y3066485D02*
X41470685Y3284199D01*
X41470685Y3284199D02*
X41470685Y3447485D01*
X41470685Y3447485D02*
X41416257Y3665199D01*
X41416257Y3665199D02*
X41361828Y3774056D01*
X41361828Y3774056D02*
X41252971Y3882913D01*
X41252971Y3882913D02*
X41089685Y3937342D01*
X41089685Y3937342D02*
X40980828Y3937342D01*
X40980828Y3937342D02*
X40817542Y3882913D01*
X40817542Y3882913D02*
X40763114Y3828485D01*
X38749257Y2903199D02*
X38803685Y2848770D01*
X38803685Y2848770D02*
X38966971Y2794342D01*
X38966971Y2794342D02*
X39075828Y2794342D01*
X39075828Y2794342D02*
X39239114Y2848770D01*
X39239114Y2848770D02*
X39347971Y2957628D01*
X39347971Y2957628D02*
X39402400Y3066485D01*
X39402400Y3066485D02*
X39456828Y3284199D01*
X39456828Y3284199D02*
X39456828Y3447485D01*
X39456828Y3447485D02*
X39402400Y3665199D01*
X39402400Y3665199D02*
X39347971Y3774056D01*
X39347971Y3774056D02*
X39239114Y3882913D01*
X39239114Y3882913D02*
X39075828Y3937342D01*
X39075828Y3937342D02*
X38966971Y3937342D01*
X38966971Y3937342D02*
X38803685Y3882913D01*
X38803685Y3882913D02*
X38749257Y3828485D01*
X38313828Y3120913D02*
X37769543Y3120913D01*
X38422685Y2794342D02*
X38041685Y3937342D01*
X38041685Y3937342D02*
X37660685Y2794342D01*
X37334114Y2848770D02*
X37170829Y2794342D01*
X37170829Y2794342D02*
X36898686Y2794342D01*
X36898686Y2794342D02*
X36789829Y2848770D01*
X36789829Y2848770D02*
X36735400Y2903199D01*
X36735400Y2903199D02*
X36680971Y3012056D01*
X36680971Y3012056D02*
X36680971Y3120913D01*
X36680971Y3120913D02*
X36735400Y3229770D01*
X36735400Y3229770D02*
X36789829Y3284199D01*
X36789829Y3284199D02*
X36898686Y3338628D01*
X36898686Y3338628D02*
X37116400Y3393056D01*
X37116400Y3393056D02*
X37225257Y3447485D01*
X37225257Y3447485D02*
X37279686Y3501913D01*
X37279686Y3501913D02*
X37334114Y3610770D01*
X37334114Y3610770D02*
X37334114Y3719628D01*
X37334114Y3719628D02*
X37279686Y3828485D01*
X37279686Y3828485D02*
X37225257Y3882913D01*
X37225257Y3882913D02*
X37116400Y3937342D01*
X37116400Y3937342D02*
X36844257Y3937342D01*
X36844257Y3937342D02*
X36680971Y3882913D01*
X36354400Y3937342D02*
X35701258Y3937342D01*
X36027829Y2794342D02*
X36027829Y3937342D01*
X35320258Y2794342D02*
X35320258Y3937342D01*
X34231686Y2794342D02*
X34775972Y2794342D01*
X34775972Y2794342D02*
X34775972Y3937342D01*
X33306400Y2794342D02*
X33850686Y2794342D01*
X33850686Y2794342D02*
X33850686Y3937342D01*
X32707685Y3937342D02*
X32489971Y3937342D01*
X32489971Y3937342D02*
X32381114Y3882913D01*
X32381114Y3882913D02*
X32272257Y3774056D01*
X32272257Y3774056D02*
X32217828Y3556342D01*
X32217828Y3556342D02*
X32217828Y3175342D01*
X32217828Y3175342D02*
X32272257Y2957628D01*
X32272257Y2957628D02*
X32381114Y2848770D01*
X32381114Y2848770D02*
X32489971Y2794342D01*
X32489971Y2794342D02*
X32707685Y2794342D01*
X32707685Y2794342D02*
X32816543Y2848770D01*
X32816543Y2848770D02*
X32925400Y2957628D01*
X32925400Y2957628D02*
X32979828Y3175342D01*
X32979828Y3175342D02*
X32979828Y3556342D01*
X32979828Y3556342D02*
X32925400Y3774056D01*
X32925400Y3774056D02*
X32816543Y3882913D01*
X32816543Y3882913D02*
X32707685Y3937342D01*
X41470685Y997110D02*
X41307400Y942682D01*
X41307400Y942682D02*
X41035257Y942682D01*
X41035257Y942682D02*
X40926400Y997110D01*
X40926400Y997110D02*
X40871971Y1051539D01*
X40871971Y1051539D02*
X40817542Y1160396D01*
X40817542Y1160396D02*
X40817542Y1269253D01*
X40817542Y1269253D02*
X40871971Y1378110D01*
X40871971Y1378110D02*
X40926400Y1432539D01*
X40926400Y1432539D02*
X41035257Y1486968D01*
X41035257Y1486968D02*
X41252971Y1541396D01*
X41252971Y1541396D02*
X41361828Y1595825D01*
X41361828Y1595825D02*
X41416257Y1650253D01*
X41416257Y1650253D02*
X41470685Y1759110D01*
X41470685Y1759110D02*
X41470685Y1867968D01*
X41470685Y1867968D02*
X41416257Y1976825D01*
X41416257Y1976825D02*
X41361828Y2031253D01*
X41361828Y2031253D02*
X41252971Y2085682D01*
X41252971Y2085682D02*
X40980828Y2085682D01*
X40980828Y2085682D02*
X40817542Y2031253D01*
X38803686Y1051539D02*
X38858114Y997110D01*
X38858114Y997110D02*
X39021400Y942682D01*
X39021400Y942682D02*
X39130257Y942682D01*
X39130257Y942682D02*
X39293543Y997110D01*
X39293543Y997110D02*
X39402400Y1105968D01*
X39402400Y1105968D02*
X39456829Y1214825D01*
X39456829Y1214825D02*
X39511257Y1432539D01*
X39511257Y1432539D02*
X39511257Y1595825D01*
X39511257Y1595825D02*
X39456829Y1813539D01*
X39456829Y1813539D02*
X39402400Y1922396D01*
X39402400Y1922396D02*
X39293543Y2031253D01*
X39293543Y2031253D02*
X39130257Y2085682D01*
X39130257Y2085682D02*
X39021400Y2085682D01*
X39021400Y2085682D02*
X38858114Y2031253D01*
X38858114Y2031253D02*
X38803686Y1976825D01*
X38096114Y2085682D02*
X37878400Y2085682D01*
X37878400Y2085682D02*
X37769543Y2031253D01*
X37769543Y2031253D02*
X37660686Y1922396D01*
X37660686Y1922396D02*
X37606257Y1704682D01*
X37606257Y1704682D02*
X37606257Y1323682D01*
X37606257Y1323682D02*
X37660686Y1105968D01*
X37660686Y1105968D02*
X37769543Y997110D01*
X37769543Y997110D02*
X37878400Y942682D01*
X37878400Y942682D02*
X38096114Y942682D01*
X38096114Y942682D02*
X38204972Y997110D01*
X38204972Y997110D02*
X38313829Y1105968D01*
X38313829Y1105968D02*
X38368257Y1323682D01*
X38368257Y1323682D02*
X38368257Y1704682D01*
X38368257Y1704682D02*
X38313829Y1922396D01*
X38313829Y1922396D02*
X38204972Y2031253D01*
X38204972Y2031253D02*
X38096114Y2085682D01*
X36572114Y942682D02*
X37116400Y942682D01*
X37116400Y942682D02*
X37116400Y2085682D01*
X35646828Y942682D02*
X36191114Y942682D01*
X36191114Y942682D02*
X36191114Y2085682D01*
X35265828Y942682D02*
X35265828Y2085682D01*
X34721542Y1541396D02*
X34340542Y1541396D01*
X34177256Y942682D02*
X34721542Y942682D01*
X34721542Y942682D02*
X34721542Y2085682D01*
X34721542Y2085682D02*
X34177256Y2085682D01*
X33034256Y942682D02*
X33415256Y1486968D01*
X33687399Y942682D02*
X33687399Y2085682D01*
X33687399Y2085682D02*
X33251970Y2085682D01*
X33251970Y2085682D02*
X33143113Y2031253D01*
X33143113Y2031253D02*
X33088684Y1976825D01*
X33088684Y1976825D02*
X33034256Y1867968D01*
X33034256Y1867968D02*
X33034256Y1704682D01*
X33034256Y1704682D02*
X33088684Y1595825D01*
X33088684Y1595825D02*
X33143113Y1541396D01*
X33143113Y1541396D02*
X33251970Y1486968D01*
X33251970Y1486968D02*
X33687399Y1486968D01*
%TO.C,R10*%
X13969742Y16156980D02*
X14308409Y16640789D01*
X14550314Y16156980D02*
X14550314Y17172980D01*
X14550314Y17172980D02*
X14163266Y17172980D01*
X14163266Y17172980D02*
X14066504Y17124599D01*
X14066504Y17124599D02*
X14018123Y17076218D01*
X14018123Y17076218D02*
X13969742Y16979456D01*
X13969742Y16979456D02*
X13969742Y16834313D01*
X13969742Y16834313D02*
X14018123Y16737551D01*
X14018123Y16737551D02*
X14066504Y16689170D01*
X14066504Y16689170D02*
X14163266Y16640789D01*
X14163266Y16640789D02*
X14550314Y16640789D01*
X13002123Y16156980D02*
X13582695Y16156980D01*
X13292409Y16156980D02*
X13292409Y17172980D01*
X13292409Y17172980D02*
X13389171Y17027837D01*
X13389171Y17027837D02*
X13485933Y16931075D01*
X13485933Y16931075D02*
X13582695Y16882694D01*
X12373171Y17172980D02*
X12276409Y17172980D01*
X12276409Y17172980D02*
X12179647Y17124599D01*
X12179647Y17124599D02*
X12131266Y17076218D01*
X12131266Y17076218D02*
X12082885Y16979456D01*
X12082885Y16979456D02*
X12034504Y16785932D01*
X12034504Y16785932D02*
X12034504Y16544027D01*
X12034504Y16544027D02*
X12082885Y16350503D01*
X12082885Y16350503D02*
X12131266Y16253741D01*
X12131266Y16253741D02*
X12179647Y16205360D01*
X12179647Y16205360D02*
X12276409Y16156980D01*
X12276409Y16156980D02*
X12373171Y16156980D01*
X12373171Y16156980D02*
X12469933Y16205360D01*
X12469933Y16205360D02*
X12518314Y16253741D01*
X12518314Y16253741D02*
X12566695Y16350503D01*
X12566695Y16350503D02*
X12615076Y16544027D01*
X12615076Y16544027D02*
X12615076Y16785932D01*
X12615076Y16785932D02*
X12566695Y16979456D01*
X12566695Y16979456D02*
X12518314Y17076218D01*
X12518314Y17076218D02*
X12469933Y17124599D01*
X12469933Y17124599D02*
X12373171Y17172980D01*
%TO.C,C31*%
X19715742Y11959341D02*
X19764123Y11910960D01*
X19764123Y11910960D02*
X19909266Y11862580D01*
X19909266Y11862580D02*
X20006028Y11862580D01*
X20006028Y11862580D02*
X20151171Y11910960D01*
X20151171Y11910960D02*
X20247933Y12007722D01*
X20247933Y12007722D02*
X20296314Y12104484D01*
X20296314Y12104484D02*
X20344695Y12298008D01*
X20344695Y12298008D02*
X20344695Y12443151D01*
X20344695Y12443151D02*
X20296314Y12636675D01*
X20296314Y12636675D02*
X20247933Y12733437D01*
X20247933Y12733437D02*
X20151171Y12830199D01*
X20151171Y12830199D02*
X20006028Y12878580D01*
X20006028Y12878580D02*
X19909266Y12878580D01*
X19909266Y12878580D02*
X19764123Y12830199D01*
X19764123Y12830199D02*
X19715742Y12781818D01*
X19377076Y12878580D02*
X18748123Y12878580D01*
X18748123Y12878580D02*
X19086790Y12491532D01*
X19086790Y12491532D02*
X18941647Y12491532D01*
X18941647Y12491532D02*
X18844885Y12443151D01*
X18844885Y12443151D02*
X18796504Y12394770D01*
X18796504Y12394770D02*
X18748123Y12298008D01*
X18748123Y12298008D02*
X18748123Y12056103D01*
X18748123Y12056103D02*
X18796504Y11959341D01*
X18796504Y11959341D02*
X18844885Y11910960D01*
X18844885Y11910960D02*
X18941647Y11862580D01*
X18941647Y11862580D02*
X19231933Y11862580D01*
X19231933Y11862580D02*
X19328695Y11910960D01*
X19328695Y11910960D02*
X19377076Y11959341D01*
X17780504Y11862580D02*
X18361076Y11862580D01*
X18070790Y11862580D02*
X18070790Y12878580D01*
X18070790Y12878580D02*
X18167552Y12733437D01*
X18167552Y12733437D02*
X18264314Y12636675D01*
X18264314Y12636675D02*
X18361076Y12588294D01*
%TO.C,R16*%
X8153142Y13729980D02*
X8491809Y14213789D01*
X8733714Y13729980D02*
X8733714Y14745980D01*
X8733714Y14745980D02*
X8346666Y14745980D01*
X8346666Y14745980D02*
X8249904Y14697599D01*
X8249904Y14697599D02*
X8201523Y14649218D01*
X8201523Y14649218D02*
X8153142Y14552456D01*
X8153142Y14552456D02*
X8153142Y14407313D01*
X8153142Y14407313D02*
X8201523Y14310551D01*
X8201523Y14310551D02*
X8249904Y14262170D01*
X8249904Y14262170D02*
X8346666Y14213789D01*
X8346666Y14213789D02*
X8733714Y14213789D01*
X7185523Y13729980D02*
X7766095Y13729980D01*
X7475809Y13729980D02*
X7475809Y14745980D01*
X7475809Y14745980D02*
X7572571Y14600837D01*
X7572571Y14600837D02*
X7669333Y14504075D01*
X7669333Y14504075D02*
X7766095Y14455694D01*
X6314666Y14745980D02*
X6508190Y14745980D01*
X6508190Y14745980D02*
X6604952Y14697599D01*
X6604952Y14697599D02*
X6653333Y14649218D01*
X6653333Y14649218D02*
X6750095Y14504075D01*
X6750095Y14504075D02*
X6798476Y14310551D01*
X6798476Y14310551D02*
X6798476Y13923503D01*
X6798476Y13923503D02*
X6750095Y13826741D01*
X6750095Y13826741D02*
X6701714Y13778360D01*
X6701714Y13778360D02*
X6604952Y13729980D01*
X6604952Y13729980D02*
X6411428Y13729980D01*
X6411428Y13729980D02*
X6314666Y13778360D01*
X6314666Y13778360D02*
X6266285Y13826741D01*
X6266285Y13826741D02*
X6217904Y13923503D01*
X6217904Y13923503D02*
X6217904Y14165408D01*
X6217904Y14165408D02*
X6266285Y14262170D01*
X6266285Y14262170D02*
X6314666Y14310551D01*
X6314666Y14310551D02*
X6411428Y14358932D01*
X6411428Y14358932D02*
X6604952Y14358932D01*
X6604952Y14358932D02*
X6701714Y14310551D01*
X6701714Y14310551D02*
X6750095Y14262170D01*
X6750095Y14262170D02*
X6798476Y14165408D01*
%TO.C,C32*%
X24180542Y10589541D02*
X24228923Y10541160D01*
X24228923Y10541160D02*
X24374066Y10492780D01*
X24374066Y10492780D02*
X24470828Y10492780D01*
X24470828Y10492780D02*
X24615971Y10541160D01*
X24615971Y10541160D02*
X24712733Y10637922D01*
X24712733Y10637922D02*
X24761114Y10734684D01*
X24761114Y10734684D02*
X24809495Y10928208D01*
X24809495Y10928208D02*
X24809495Y11073351D01*
X24809495Y11073351D02*
X24761114Y11266875D01*
X24761114Y11266875D02*
X24712733Y11363637D01*
X24712733Y11363637D02*
X24615971Y11460399D01*
X24615971Y11460399D02*
X24470828Y11508780D01*
X24470828Y11508780D02*
X24374066Y11508780D01*
X24374066Y11508780D02*
X24228923Y11460399D01*
X24228923Y11460399D02*
X24180542Y11412018D01*
X23841876Y11508780D02*
X23212923Y11508780D01*
X23212923Y11508780D02*
X23551590Y11121732D01*
X23551590Y11121732D02*
X23406447Y11121732D01*
X23406447Y11121732D02*
X23309685Y11073351D01*
X23309685Y11073351D02*
X23261304Y11024970D01*
X23261304Y11024970D02*
X23212923Y10928208D01*
X23212923Y10928208D02*
X23212923Y10686303D01*
X23212923Y10686303D02*
X23261304Y10589541D01*
X23261304Y10589541D02*
X23309685Y10541160D01*
X23309685Y10541160D02*
X23406447Y10492780D01*
X23406447Y10492780D02*
X23696733Y10492780D01*
X23696733Y10492780D02*
X23793495Y10541160D01*
X23793495Y10541160D02*
X23841876Y10589541D01*
X22825876Y11412018D02*
X22777495Y11460399D01*
X22777495Y11460399D02*
X22680733Y11508780D01*
X22680733Y11508780D02*
X22438828Y11508780D01*
X22438828Y11508780D02*
X22342066Y11460399D01*
X22342066Y11460399D02*
X22293685Y11412018D01*
X22293685Y11412018D02*
X22245304Y11315256D01*
X22245304Y11315256D02*
X22245304Y11218494D01*
X22245304Y11218494D02*
X22293685Y11073351D01*
X22293685Y11073351D02*
X22874257Y10492780D01*
X22874257Y10492780D02*
X22245304Y10492780D01*
%TO.C,C29*%
X32867342Y6550941D02*
X32915723Y6502560D01*
X32915723Y6502560D02*
X33060866Y6454180D01*
X33060866Y6454180D02*
X33157628Y6454180D01*
X33157628Y6454180D02*
X33302771Y6502560D01*
X33302771Y6502560D02*
X33399533Y6599322D01*
X33399533Y6599322D02*
X33447914Y6696084D01*
X33447914Y6696084D02*
X33496295Y6889608D01*
X33496295Y6889608D02*
X33496295Y7034751D01*
X33496295Y7034751D02*
X33447914Y7228275D01*
X33447914Y7228275D02*
X33399533Y7325037D01*
X33399533Y7325037D02*
X33302771Y7421799D01*
X33302771Y7421799D02*
X33157628Y7470180D01*
X33157628Y7470180D02*
X33060866Y7470180D01*
X33060866Y7470180D02*
X32915723Y7421799D01*
X32915723Y7421799D02*
X32867342Y7373418D01*
X32480295Y7373418D02*
X32431914Y7421799D01*
X32431914Y7421799D02*
X32335152Y7470180D01*
X32335152Y7470180D02*
X32093247Y7470180D01*
X32093247Y7470180D02*
X31996485Y7421799D01*
X31996485Y7421799D02*
X31948104Y7373418D01*
X31948104Y7373418D02*
X31899723Y7276656D01*
X31899723Y7276656D02*
X31899723Y7179894D01*
X31899723Y7179894D02*
X31948104Y7034751D01*
X31948104Y7034751D02*
X32528676Y6454180D01*
X32528676Y6454180D02*
X31899723Y6454180D01*
X31415914Y6454180D02*
X31222390Y6454180D01*
X31222390Y6454180D02*
X31125628Y6502560D01*
X31125628Y6502560D02*
X31077247Y6550941D01*
X31077247Y6550941D02*
X30980485Y6696084D01*
X30980485Y6696084D02*
X30932104Y6889608D01*
X30932104Y6889608D02*
X30932104Y7276656D01*
X30932104Y7276656D02*
X30980485Y7373418D01*
X30980485Y7373418D02*
X31028866Y7421799D01*
X31028866Y7421799D02*
X31125628Y7470180D01*
X31125628Y7470180D02*
X31319152Y7470180D01*
X31319152Y7470180D02*
X31415914Y7421799D01*
X31415914Y7421799D02*
X31464295Y7373418D01*
X31464295Y7373418D02*
X31512676Y7276656D01*
X31512676Y7276656D02*
X31512676Y7034751D01*
X31512676Y7034751D02*
X31464295Y6937989D01*
X31464295Y6937989D02*
X31415914Y6889608D01*
X31415914Y6889608D02*
X31319152Y6841227D01*
X31319152Y6841227D02*
X31125628Y6841227D01*
X31125628Y6841227D02*
X31028866Y6889608D01*
X31028866Y6889608D02*
X30980485Y6937989D01*
X30980485Y6937989D02*
X30932104Y7034751D01*
%TO.C,R11*%
X13893542Y9629180D02*
X14232209Y10112989D01*
X14474114Y9629180D02*
X14474114Y10645180D01*
X14474114Y10645180D02*
X14087066Y10645180D01*
X14087066Y10645180D02*
X13990304Y10596799D01*
X13990304Y10596799D02*
X13941923Y10548418D01*
X13941923Y10548418D02*
X13893542Y10451656D01*
X13893542Y10451656D02*
X13893542Y10306513D01*
X13893542Y10306513D02*
X13941923Y10209751D01*
X13941923Y10209751D02*
X13990304Y10161370D01*
X13990304Y10161370D02*
X14087066Y10112989D01*
X14087066Y10112989D02*
X14474114Y10112989D01*
X12925923Y9629180D02*
X13506495Y9629180D01*
X13216209Y9629180D02*
X13216209Y10645180D01*
X13216209Y10645180D02*
X13312971Y10500037D01*
X13312971Y10500037D02*
X13409733Y10403275D01*
X13409733Y10403275D02*
X13506495Y10354894D01*
X11958304Y9629180D02*
X12538876Y9629180D01*
X12248590Y9629180D02*
X12248590Y10645180D01*
X12248590Y10645180D02*
X12345352Y10500037D01*
X12345352Y10500037D02*
X12442114Y10403275D01*
X12442114Y10403275D02*
X12538876Y10354894D01*
%TO.C,R7*%
X30859532Y10645180D02*
X31198199Y11128989D01*
X31440104Y10645180D02*
X31440104Y11661180D01*
X31440104Y11661180D02*
X31053056Y11661180D01*
X31053056Y11661180D02*
X30956294Y11612799D01*
X30956294Y11612799D02*
X30907913Y11564418D01*
X30907913Y11564418D02*
X30859532Y11467656D01*
X30859532Y11467656D02*
X30859532Y11322513D01*
X30859532Y11322513D02*
X30907913Y11225751D01*
X30907913Y11225751D02*
X30956294Y11177370D01*
X30956294Y11177370D02*
X31053056Y11128989D01*
X31053056Y11128989D02*
X31440104Y11128989D01*
X30520866Y11661180D02*
X29843532Y11661180D01*
X29843532Y11661180D02*
X30278961Y10645180D01*
%TO.C,R8*%
X33755132Y10645180D02*
X34093799Y11128989D01*
X34335704Y10645180D02*
X34335704Y11661180D01*
X34335704Y11661180D02*
X33948656Y11661180D01*
X33948656Y11661180D02*
X33851894Y11612799D01*
X33851894Y11612799D02*
X33803513Y11564418D01*
X33803513Y11564418D02*
X33755132Y11467656D01*
X33755132Y11467656D02*
X33755132Y11322513D01*
X33755132Y11322513D02*
X33803513Y11225751D01*
X33803513Y11225751D02*
X33851894Y11177370D01*
X33851894Y11177370D02*
X33948656Y11128989D01*
X33948656Y11128989D02*
X34335704Y11128989D01*
X33174561Y11225751D02*
X33271323Y11274132D01*
X33271323Y11274132D02*
X33319704Y11322513D01*
X33319704Y11322513D02*
X33368085Y11419275D01*
X33368085Y11419275D02*
X33368085Y11467656D01*
X33368085Y11467656D02*
X33319704Y11564418D01*
X33319704Y11564418D02*
X33271323Y11612799D01*
X33271323Y11612799D02*
X33174561Y11661180D01*
X33174561Y11661180D02*
X32981037Y11661180D01*
X32981037Y11661180D02*
X32884275Y11612799D01*
X32884275Y11612799D02*
X32835894Y11564418D01*
X32835894Y11564418D02*
X32787513Y11467656D01*
X32787513Y11467656D02*
X32787513Y11419275D01*
X32787513Y11419275D02*
X32835894Y11322513D01*
X32835894Y11322513D02*
X32884275Y11274132D01*
X32884275Y11274132D02*
X32981037Y11225751D01*
X32981037Y11225751D02*
X33174561Y11225751D01*
X33174561Y11225751D02*
X33271323Y11177370D01*
X33271323Y11177370D02*
X33319704Y11128989D01*
X33319704Y11128989D02*
X33368085Y11032227D01*
X33368085Y11032227D02*
X33368085Y10838703D01*
X33368085Y10838703D02*
X33319704Y10741941D01*
X33319704Y10741941D02*
X33271323Y10693560D01*
X33271323Y10693560D02*
X33174561Y10645180D01*
X33174561Y10645180D02*
X32981037Y10645180D01*
X32981037Y10645180D02*
X32884275Y10693560D01*
X32884275Y10693560D02*
X32835894Y10741941D01*
X32835894Y10741941D02*
X32787513Y10838703D01*
X32787513Y10838703D02*
X32787513Y11032227D01*
X32787513Y11032227D02*
X32835894Y11128989D01*
X32835894Y11128989D02*
X32884275Y11177370D01*
X32884275Y11177370D02*
X32981037Y11225751D01*
%TO.C,C35*%
X8457942Y9979941D02*
X8506323Y9931560D01*
X8506323Y9931560D02*
X8651466Y9883180D01*
X8651466Y9883180D02*
X8748228Y9883180D01*
X8748228Y9883180D02*
X8893371Y9931560D01*
X8893371Y9931560D02*
X8990133Y10028322D01*
X8990133Y10028322D02*
X9038514Y10125084D01*
X9038514Y10125084D02*
X9086895Y10318608D01*
X9086895Y10318608D02*
X9086895Y10463751D01*
X9086895Y10463751D02*
X9038514Y10657275D01*
X9038514Y10657275D02*
X8990133Y10754037D01*
X8990133Y10754037D02*
X8893371Y10850799D01*
X8893371Y10850799D02*
X8748228Y10899180D01*
X8748228Y10899180D02*
X8651466Y10899180D01*
X8651466Y10899180D02*
X8506323Y10850799D01*
X8506323Y10850799D02*
X8457942Y10802418D01*
X8119276Y10899180D02*
X7490323Y10899180D01*
X7490323Y10899180D02*
X7828990Y10512132D01*
X7828990Y10512132D02*
X7683847Y10512132D01*
X7683847Y10512132D02*
X7587085Y10463751D01*
X7587085Y10463751D02*
X7538704Y10415370D01*
X7538704Y10415370D02*
X7490323Y10318608D01*
X7490323Y10318608D02*
X7490323Y10076703D01*
X7490323Y10076703D02*
X7538704Y9979941D01*
X7538704Y9979941D02*
X7587085Y9931560D01*
X7587085Y9931560D02*
X7683847Y9883180D01*
X7683847Y9883180D02*
X7974133Y9883180D01*
X7974133Y9883180D02*
X8070895Y9931560D01*
X8070895Y9931560D02*
X8119276Y9979941D01*
X6571085Y10899180D02*
X7054895Y10899180D01*
X7054895Y10899180D02*
X7103276Y10415370D01*
X7103276Y10415370D02*
X7054895Y10463751D01*
X7054895Y10463751D02*
X6958133Y10512132D01*
X6958133Y10512132D02*
X6716228Y10512132D01*
X6716228Y10512132D02*
X6619466Y10463751D01*
X6619466Y10463751D02*
X6571085Y10415370D01*
X6571085Y10415370D02*
X6522704Y10318608D01*
X6522704Y10318608D02*
X6522704Y10076703D01*
X6522704Y10076703D02*
X6571085Y9979941D01*
X6571085Y9979941D02*
X6619466Y9931560D01*
X6619466Y9931560D02*
X6716228Y9883180D01*
X6716228Y9883180D02*
X6958133Y9883180D01*
X6958133Y9883180D02*
X7054895Y9931560D01*
X7054895Y9931560D02*
X7103276Y9979941D01*
%TO.C,R16*%
X9260000Y13812936D02*
X9260000Y15267064D01*
X11080000Y13812936D02*
X11080000Y15267064D01*
%TD*%
M02*
