%TF.GenerationSoftware,KiCad,Pcbnew,7.0.1*%
%TF.CreationDate,2024-01-20T12:23:47-08:00*%
%TF.ProjectId,CC1200 Dev Board,43433132-3030-4204-9465-7620426f6172,v1.0*%
%TF.SameCoordinates,PX450a6a0PY58363a0*%
%TF.FileFunction,Copper,L2,Inr*%
%TF.FilePolarity,Positive*%
%FSLAX46Y46*%
G04 Gerber Fmt 4.6, Leading zero omitted, Abs format (unit mm)*
G04 Created by KiCad (PCBNEW 7.0.1) date 2024-01-20 12:23:47*
%MOMM*%
%LPD*%
G01*
G04 APERTURE LIST*
%TA.AperFunction,WasherPad*%
%ADD10C,3.810000*%
%TD*%
%TA.AperFunction,ViaPad*%
%ADD11C,0.700000*%
%TD*%
%TA.AperFunction,ViaPad*%
%ADD12C,0.635000*%
%TD*%
%TA.AperFunction,ViaPad*%
%ADD13C,0.500000*%
%TD*%
%TA.AperFunction,ViaPad*%
%ADD14C,0.600000*%
%TD*%
G04 APERTURE END LIST*
D10*
%TO.N,*%
%TO.C,*%
X46870000Y2530000D03*
%TD*%
%TO.N,*%
%TO.C,*%
X3055000Y23485000D03*
%TD*%
%TO.N,*%
%TO.C,*%
X3055000Y2530000D03*
%TD*%
D11*
%TO.N,GND*%
X25400000Y13970000D03*
X30480000Y13970000D03*
X27940000Y13970000D03*
X29210000Y15240000D03*
X31750000Y15240000D03*
X31750000Y17780000D03*
X30480000Y16510000D03*
X30480000Y19050000D03*
X29210000Y17780000D03*
X27940000Y16510000D03*
X27940000Y19050000D03*
X26670000Y20320000D03*
X24130000Y20320000D03*
X34290000Y20320000D03*
X31750000Y20320000D03*
X29210000Y20320000D03*
D12*
X21500000Y17825000D03*
D11*
X22975000Y13675000D03*
X22125000Y13150000D03*
X21075000Y13150000D03*
D13*
%TO.N,Net-(U2-PH)*%
X19650000Y14975000D03*
D11*
%TO.N,GND*%
X36710000Y25390000D03*
X17660000Y19040000D03*
X43695000Y34280000D03*
X25210000Y33090000D03*
X12580000Y24120000D03*
X15120000Y31740000D03*
X48140000Y29200000D03*
X47479600Y46726000D03*
X3690000Y30470000D03*
X2420000Y11420000D03*
X9582800Y5882800D03*
X14104000Y43932000D03*
X40164400Y37378800D03*
X38792800Y47996000D03*
X2420000Y46980000D03*
X29090000Y25390000D03*
X32900000Y31740000D03*
X34170000Y22850000D03*
X18930000Y25390000D03*
X15700000Y4400000D03*
X4960000Y46980000D03*
X13850000Y25390000D03*
X32900000Y21580000D03*
X47733600Y42001600D03*
X45193600Y38140800D03*
X20200000Y24120000D03*
X22079600Y46573600D03*
X31630000Y22850000D03*
X25800000Y9800000D03*
X46870000Y38090000D03*
X4960000Y13960000D03*
X16400000Y2500000D03*
X8700000Y6700000D03*
X48140000Y36820000D03*
X30868000Y29860400D03*
X4720000Y40150000D03*
X40520000Y31740000D03*
X38792800Y41900000D03*
X27820000Y34280000D03*
X43060000Y3800000D03*
X2420000Y29200000D03*
X39250000Y15230000D03*
X44330000Y27930000D03*
X37980000Y29200000D03*
X21470000Y27930000D03*
X31503000Y44567000D03*
X7500000Y3800000D03*
X18218800Y46980000D03*
X26143600Y47488000D03*
X39250000Y19040000D03*
X21470000Y25390000D03*
X25280000Y31740000D03*
X16810000Y40410000D03*
X16840000Y39410000D03*
X10040000Y46980000D03*
X34170000Y45710000D03*
X15120000Y34280000D03*
X10040000Y1260000D03*
X16390000Y36185000D03*
X37980000Y31740000D03*
X25661000Y39106000D03*
X23375000Y40249000D03*
X16500000Y11500000D03*
D14*
X22384400Y6187600D03*
D11*
X37980000Y21580000D03*
X25280000Y21580000D03*
X25280000Y5070000D03*
X23248000Y8118000D03*
D14*
X10040000Y39360000D03*
D11*
X43060000Y29200000D03*
D14*
X10040000Y31740000D03*
D11*
X34170000Y10150000D03*
X10040000Y24120000D03*
X16390000Y30470000D03*
X32900000Y24120000D03*
X14200000Y4200000D03*
X39250000Y30470000D03*
X26410000Y33130000D03*
X9582800Y8340800D03*
X36710000Y30470000D03*
X36710000Y27930000D03*
X4720000Y35080000D03*
X24518000Y40249000D03*
D14*
X18900000Y6900000D03*
D11*
X6230000Y27930000D03*
X41840800Y48097600D03*
X36710000Y43170000D03*
X12580000Y3800000D03*
X2420000Y13960000D03*
X25800000Y11700000D03*
X15120000Y3800000D03*
X19641200Y1006000D03*
X8770000Y25390000D03*
X35440000Y29200000D03*
X41586800Y39309200D03*
X27820000Y1260000D03*
X34170000Y25390000D03*
X13850000Y48250000D03*
X21470000Y22850000D03*
X46870000Y27930000D03*
X31630000Y25390000D03*
X34170000Y30470000D03*
X7500000Y11420000D03*
X23375000Y41265000D03*
X35440000Y24120000D03*
X48952800Y6340000D03*
X25661000Y41265000D03*
X44330000Y30470000D03*
X2420000Y31740000D03*
X10497200Y6695600D03*
X46870000Y35550000D03*
X7500000Y46980000D03*
X43060000Y1260000D03*
X39250000Y33010000D03*
X3690000Y48250000D03*
X23730600Y33340200D03*
X25940400Y1564800D03*
X45600000Y29200000D03*
X36710000Y2530000D03*
X47733600Y39258400D03*
X41790000Y22850000D03*
X9582800Y7508400D03*
X37980000Y24120000D03*
X38792800Y46726000D03*
X40520000Y24120000D03*
X30360000Y21580000D03*
X8700000Y5900000D03*
X41790000Y30470000D03*
X48140000Y34280000D03*
D14*
X20400000Y8400000D03*
D11*
X14104000Y41392000D03*
X27159600Y47488000D03*
X46412800Y39258400D03*
X27820000Y2530000D03*
X36710000Y45710000D03*
X16400000Y900000D03*
X16390000Y17770000D03*
X16390000Y48250000D03*
X36710000Y48250000D03*
X4690000Y37600000D03*
X4960000Y11420000D03*
X44838000Y48148400D03*
X32900000Y29200000D03*
X25800000Y10700000D03*
D14*
X10040000Y34280000D03*
D11*
X32900000Y44440000D03*
X18930000Y48250000D03*
X25800000Y8900000D03*
X34170000Y33264000D03*
D14*
X10040000Y29200000D03*
D11*
X37800000Y1600000D03*
X34170000Y48250000D03*
X34170000Y43170000D03*
X34779600Y41493600D03*
X20200000Y19040000D03*
X47378000Y48097600D03*
X10497200Y5882800D03*
X21216000Y33340200D03*
X47479600Y45608400D03*
X39250000Y13960000D03*
X43060000Y31740000D03*
X16390000Y20310000D03*
X10040000Y3800000D03*
X40164400Y39309200D03*
X7500000Y1260000D03*
X20200000Y21580000D03*
X39250000Y11420000D03*
X2420000Y41900000D03*
X40520000Y48097600D03*
X25940400Y2377600D03*
X24518000Y46599000D03*
X7500000Y24120000D03*
X43060000Y21580000D03*
X43060000Y24120000D03*
X36075000Y38725000D03*
X35440000Y46980000D03*
X29267800Y2504600D03*
X10497200Y7508400D03*
X39250000Y16500000D03*
X19840000Y43870000D03*
X27820000Y21580000D03*
X14104000Y36312000D03*
X35440000Y2530000D03*
X38792800Y45456000D03*
X16390000Y25390000D03*
D14*
X10040000Y41900000D03*
D11*
X41790000Y27930000D03*
X45600000Y31740000D03*
X16700000Y3400000D03*
X23552800Y43474800D03*
X28429600Y29911200D03*
X36710000Y22850000D03*
X18930000Y27930000D03*
X35440000Y21580000D03*
X38792800Y40579200D03*
X36710000Y3800000D03*
X29090000Y3800000D03*
X24075000Y8118000D03*
X41790000Y25390000D03*
X11310000Y27930000D03*
X25940400Y750000D03*
D14*
X25000000Y8321200D03*
D11*
X47733600Y40680800D03*
X4720000Y45230000D03*
X31630000Y33264000D03*
X4770000Y32520000D03*
X39250000Y27930000D03*
X13850000Y31232000D03*
X14104000Y33772000D03*
X11310000Y25390000D03*
X3690000Y27930000D03*
X35440000Y44440000D03*
X30080000Y43280000D03*
X24010000Y25390000D03*
X38792800Y39309200D03*
X16500000Y12300000D03*
X4770000Y42680000D03*
X40520000Y21580000D03*
X24010000Y30470000D03*
X12580000Y46980000D03*
X15120000Y29200000D03*
X39250000Y20310000D03*
X29090000Y27930000D03*
X39250000Y12690000D03*
X17660000Y44440000D03*
X41637600Y37734400D03*
X35440000Y31740000D03*
X2420000Y34280000D03*
X35440000Y3800000D03*
D14*
X20400000Y6900000D03*
D11*
X36964000Y33010000D03*
X31630000Y27930000D03*
X24010000Y27930000D03*
X24518000Y39106000D03*
X26270000Y28300000D03*
X46870000Y30470000D03*
X30207600Y47792800D03*
X2420000Y44440000D03*
X34170000Y8880000D03*
X25661000Y40249000D03*
X15120000Y46980000D03*
X6230000Y48250000D03*
X7500000Y13960000D03*
X45193600Y39258400D03*
X8700000Y8321200D03*
X8700000Y7500000D03*
X39250000Y22850000D03*
X13850000Y27930000D03*
X41485200Y33975200D03*
X48140000Y31740000D03*
X2420000Y36820000D03*
X46057200Y36667600D03*
X45600000Y34280000D03*
X48952800Y8930800D03*
X24518000Y41265000D03*
X11310000Y48250000D03*
X44330000Y33010000D03*
X14358000Y38852000D03*
X24400000Y5000000D03*
X9582800Y6695600D03*
X11310000Y5070000D03*
X22740000Y24120000D03*
X36710000Y40630000D03*
X46870000Y33010000D03*
X38742000Y37429600D03*
D14*
X10040000Y36820000D03*
X22790800Y1514000D03*
D11*
X22740000Y21580000D03*
X16390000Y27930000D03*
X15120000Y36820000D03*
D14*
X19700000Y7700000D03*
D11*
X8770000Y27930000D03*
X37980000Y34280000D03*
X8770000Y48250000D03*
X14500000Y900000D03*
X23375000Y39106000D03*
X34830400Y37886800D03*
X2420000Y39360000D03*
X46006400Y48148400D03*
D14*
X10040000Y44440000D03*
D11*
X30360000Y24120000D03*
X36329000Y1031400D03*
D14*
X23222600Y6213000D03*
D11*
X18930000Y17770000D03*
X29140800Y47792800D03*
X18930000Y22850000D03*
X32900000Y46980000D03*
X39250000Y25390000D03*
X14500000Y2500000D03*
X18930000Y20310000D03*
X39250000Y17770000D03*
X27820000Y24120000D03*
X17660000Y21580000D03*
X22425000Y8118000D03*
X24010000Y48250000D03*
X10497200Y8321200D03*
X29090000Y22850000D03*
D14*
X18900000Y8400000D03*
D11*
X28124800Y48707200D03*
X40520000Y29200000D03*
X34170000Y27930000D03*
%TO.N,+3.3V*%
X18777600Y40884000D03*
X25584800Y45760800D03*
X27090000Y35080000D03*
X4740000Y29990000D03*
X27718400Y45811600D03*
X29980000Y42140000D03*
X20050000Y32320000D03*
X21160000Y34470000D03*
X30918800Y31040000D03*
X19692000Y42916000D03*
X16970000Y47030800D03*
X30766400Y46065600D03*
X23790000Y34480000D03*
X28531200Y31080000D03*
%TO.N,BAT_OUT_R*%
X36300000Y5500000D03*
X35700000Y6100000D03*
X40600000Y1600000D03*
X32200000Y7600000D03*
X32200000Y7000000D03*
X31000000Y7600000D03*
X36300000Y6700000D03*
X31000000Y7000000D03*
X35100000Y6700000D03*
X35100000Y5500000D03*
%TO.N,VFB*%
X22689200Y5019200D03*
%TO.N,VIN_D*%
X15577200Y12334400D03*
X19539600Y2123600D03*
X14815200Y11800000D03*
X14104000Y12385200D03*
X11500000Y2100000D03*
D14*
%TO.N,Net-(U2-BTST)*%
X18295000Y11140600D03*
D11*
X22155800Y11496200D03*
D13*
%TO.N,Net-(U2-PH)*%
X20000000Y11300000D03*
D11*
%TO.N,Net-(U2-REGN)*%
X21700000Y9910000D03*
X21420000Y9130000D03*
D14*
%TO.N,Net-(D2-K)*%
X18900000Y3300000D03*
X19387200Y4968400D03*
D11*
%TO.N,VIN*%
X9400000Y19903600D03*
X10192400Y17465200D03*
X8516000Y17465200D03*
X8516000Y19090800D03*
X10192400Y19903600D03*
X9379600Y17465200D03*
X9400000Y18278000D03*
X8516000Y18278000D03*
X10192400Y19090800D03*
X9400000Y19090800D03*
X10192400Y18278000D03*
X8516000Y19903600D03*
%TO.N,BAT_OUT*%
X40500000Y8900000D03*
X40500000Y9500000D03*
X41100000Y10100000D03*
X41100000Y8900000D03*
X41100000Y9500000D03*
X40500000Y10100000D03*
D14*
%TO.N,BAT_TEMP*%
X17660000Y4308000D03*
D11*
X16300000Y6700000D03*
D14*
%TO.N,/RESET*%
X20504800Y41849200D03*
D11*
X18070000Y33110000D03*
%TO.N,MPPTSET_RST*%
X15221600Y23866000D03*
D14*
X14900000Y8300000D03*
%TD*%
%TA.AperFunction,Conductor*%
%TO.N,GND*%
G36*
X25646197Y26061843D02*
G01*
X44460319Y26013596D01*
X44522183Y25996877D01*
X44567440Y25951504D01*
X44584000Y25889596D01*
X44584000Y21326000D01*
X49575780Y21326000D01*
X49637780Y21309387D01*
X49683167Y21264000D01*
X49699780Y21202000D01*
X49699780Y4940000D01*
X49683167Y4878000D01*
X49637780Y4832613D01*
X49575780Y4816000D01*
X44584000Y4816000D01*
X44584000Y424220D01*
X44567387Y362220D01*
X44522000Y316833D01*
X44460000Y300220D01*
X5592000Y300220D01*
X5530000Y316833D01*
X5484613Y362220D01*
X5468000Y424220D01*
X5468000Y1600000D01*
X40117590Y1600000D01*
X40137130Y1464089D01*
X40194170Y1339191D01*
X40194171Y1339189D01*
X40232202Y1295299D01*
X40284088Y1235419D01*
X40341844Y1198302D01*
X40399600Y1161184D01*
X40531346Y1122500D01*
X40668654Y1122500D01*
X40800400Y1161184D01*
X40915911Y1235419D01*
X41005829Y1339189D01*
X41062869Y1464089D01*
X41082410Y1600000D01*
X41062869Y1735911D01*
X41005829Y1860811D01*
X40960870Y1912696D01*
X40915911Y1964582D01*
X40800398Y2038817D01*
X40668654Y2077500D01*
X40531346Y2077500D01*
X40399601Y2038817D01*
X40284088Y1964582D01*
X40194170Y1860810D01*
X40137130Y1735912D01*
X40117590Y1600000D01*
X5468000Y1600000D01*
X5468000Y2100000D01*
X11017590Y2100000D01*
X11037130Y1964089D01*
X11084297Y1860810D01*
X11094171Y1839189D01*
X11132202Y1795299D01*
X11184088Y1735419D01*
X11241844Y1698302D01*
X11299600Y1661184D01*
X11431346Y1622500D01*
X11568654Y1622500D01*
X11700400Y1661184D01*
X11815911Y1735419D01*
X11905829Y1839189D01*
X11962869Y1964089D01*
X11982410Y2100000D01*
X11979017Y2123600D01*
X19057190Y2123600D01*
X19076730Y1987689D01*
X19133770Y1862791D01*
X19133771Y1862789D01*
X19154219Y1839191D01*
X19223688Y1759019D01*
X19259644Y1735912D01*
X19339200Y1684784D01*
X19470946Y1646100D01*
X19608254Y1646100D01*
X19740000Y1684784D01*
X19855511Y1759019D01*
X19945429Y1862789D01*
X20002469Y1987689D01*
X20022010Y2123600D01*
X20002469Y2259511D01*
X19945429Y2384411D01*
X19875960Y2464582D01*
X19855511Y2488182D01*
X19739998Y2562417D01*
X19608254Y2601100D01*
X19470946Y2601100D01*
X19339201Y2562417D01*
X19223688Y2488182D01*
X19133770Y2384410D01*
X19076730Y2259512D01*
X19057190Y2123600D01*
X11979017Y2123600D01*
X11962869Y2235911D01*
X11952091Y2259511D01*
X11905829Y2360810D01*
X11905829Y2360811D01*
X11860869Y2412697D01*
X11815911Y2464582D01*
X11700398Y2538817D01*
X11568654Y2577500D01*
X11431346Y2577500D01*
X11299601Y2538817D01*
X11184088Y2464582D01*
X11094170Y2360810D01*
X11037130Y2235912D01*
X11017590Y2100000D01*
X5468000Y2100000D01*
X5468000Y3300001D01*
X18468104Y3300001D01*
X18485599Y3178319D01*
X18536664Y3066501D01*
X18536666Y3066499D01*
X18617168Y2973595D01*
X18720584Y2907134D01*
X18838535Y2872500D01*
X18961465Y2872500D01*
X19079416Y2907134D01*
X19182832Y2973595D01*
X19263334Y3066499D01*
X19314401Y3178321D01*
X19331896Y3300000D01*
X19314401Y3421679D01*
X19314400Y3421682D01*
X19263335Y3533500D01*
X19182832Y3626405D01*
X19079414Y3692867D01*
X18961465Y3727500D01*
X18838535Y3727500D01*
X18720585Y3692867D01*
X18617167Y3626405D01*
X18536664Y3533500D01*
X18485599Y3421682D01*
X18468104Y3300001D01*
X5468000Y3300001D01*
X5468000Y4308001D01*
X17228104Y4308001D01*
X17245599Y4186319D01*
X17296664Y4074501D01*
X17296666Y4074499D01*
X17377168Y3981595D01*
X17480584Y3915134D01*
X17598535Y3880500D01*
X17721465Y3880500D01*
X17839416Y3915134D01*
X17942832Y3981595D01*
X18023334Y4074499D01*
X18074401Y4186321D01*
X18091896Y4308000D01*
X18074401Y4429679D01*
X18074400Y4429682D01*
X18023335Y4541500D01*
X17942832Y4634405D01*
X17839414Y4700867D01*
X17721465Y4735500D01*
X17598535Y4735500D01*
X17480585Y4700867D01*
X17377167Y4634405D01*
X17296664Y4541500D01*
X17245599Y4429682D01*
X17228104Y4308001D01*
X5468000Y4308001D01*
X5468000Y5070000D01*
X424220Y5070000D01*
X362220Y5086613D01*
X316833Y5132000D01*
X300220Y5194000D01*
X300220Y5400000D01*
X17400000Y5400000D01*
X18923998Y5400000D01*
X18978710Y5387277D01*
X19022195Y5351719D01*
X19045529Y5300623D01*
X19043923Y5244474D01*
X19030259Y5218582D01*
X19031272Y5218119D01*
X18972799Y5090082D01*
X18955304Y4968400D01*
X18972799Y4846719D01*
X19023864Y4734901D01*
X19023866Y4734899D01*
X19104368Y4641995D01*
X19207784Y4575534D01*
X19325735Y4540900D01*
X19448665Y4540900D01*
X19566616Y4575534D01*
X19670032Y4641995D01*
X19750534Y4734899D01*
X19750809Y4735500D01*
X19801600Y4846719D01*
X19801599Y4846719D01*
X19801601Y4846721D01*
X19819096Y4968400D01*
X19811792Y5019200D01*
X22206790Y5019200D01*
X22226330Y4883289D01*
X22283370Y4758391D01*
X22283371Y4758389D01*
X22321403Y4714499D01*
X22373288Y4654619D01*
X22392932Y4641995D01*
X22488800Y4580384D01*
X22620546Y4541700D01*
X22757854Y4541700D01*
X22889600Y4580384D01*
X23005111Y4654619D01*
X23095029Y4758389D01*
X23152069Y4883289D01*
X23171610Y5019200D01*
X23152069Y5155111D01*
X23095029Y5280011D01*
X23024621Y5361266D01*
X23005111Y5383782D01*
X22889598Y5458017D01*
X22757854Y5496700D01*
X22620546Y5496700D01*
X22488801Y5458017D01*
X22373288Y5383782D01*
X22283370Y5280010D01*
X22226330Y5155112D01*
X22206790Y5019200D01*
X19811792Y5019200D01*
X19801601Y5090079D01*
X19801600Y5090082D01*
X19743128Y5218119D01*
X19744140Y5218582D01*
X19730477Y5244474D01*
X19728871Y5300623D01*
X19752205Y5351719D01*
X19795690Y5387277D01*
X19850402Y5400000D01*
X21900000Y5400000D01*
X21900000Y5500000D01*
X34617590Y5500000D01*
X34620046Y5482917D01*
X34637130Y5364089D01*
X34691757Y5244474D01*
X34694171Y5239189D01*
X34726482Y5201901D01*
X34784088Y5135419D01*
X34841844Y5098302D01*
X34899600Y5061184D01*
X35031346Y5022500D01*
X35168654Y5022500D01*
X35300400Y5061184D01*
X35415911Y5135419D01*
X35505829Y5239189D01*
X35562869Y5364089D01*
X35577262Y5464197D01*
X35598992Y5518476D01*
X35643180Y5556765D01*
X35700000Y5570549D01*
X35756820Y5556765D01*
X35801008Y5518476D01*
X35822738Y5464196D01*
X35837130Y5364089D01*
X35891757Y5244474D01*
X35894171Y5239189D01*
X35926482Y5201901D01*
X35984088Y5135419D01*
X36041844Y5098302D01*
X36099600Y5061184D01*
X36231346Y5022500D01*
X36368654Y5022500D01*
X36500400Y5061184D01*
X36615911Y5135419D01*
X36705829Y5239189D01*
X36762869Y5364089D01*
X36782410Y5500000D01*
X36762869Y5635911D01*
X36759337Y5643644D01*
X36705829Y5760810D01*
X36705829Y5760811D01*
X36660869Y5812697D01*
X36615911Y5864582D01*
X36500398Y5938817D01*
X36356655Y5981024D01*
X36302665Y6013581D01*
X36271664Y6068479D01*
X36271664Y6131525D01*
X36302666Y6186422D01*
X36356656Y6218978D01*
X36368651Y6222500D01*
X36368654Y6222500D01*
X36500400Y6261184D01*
X36615911Y6335419D01*
X36705829Y6439189D01*
X36762869Y6564089D01*
X36782410Y6700000D01*
X36762869Y6835911D01*
X36705829Y6960811D01*
X36640846Y7035805D01*
X36615911Y7064582D01*
X36504920Y7135911D01*
X36500400Y7138816D01*
X36500399Y7138817D01*
X36500398Y7138817D01*
X36368654Y7177500D01*
X36231346Y7177500D01*
X36099601Y7138817D01*
X35984088Y7064582D01*
X35894170Y6960810D01*
X35837130Y6835912D01*
X35822738Y6735805D01*
X35801008Y6681525D01*
X35756820Y6643236D01*
X35700000Y6629452D01*
X35643180Y6643236D01*
X35598992Y6681525D01*
X35577262Y6735805D01*
X35562869Y6835912D01*
X35505829Y6960810D01*
X35505829Y6960811D01*
X35440846Y7035805D01*
X35415911Y7064582D01*
X35304920Y7135911D01*
X35300400Y7138816D01*
X35300399Y7138817D01*
X35300398Y7138817D01*
X35168654Y7177500D01*
X35031346Y7177500D01*
X34899601Y7138817D01*
X34784088Y7064582D01*
X34694170Y6960810D01*
X34637130Y6835912D01*
X34617590Y6700001D01*
X34637130Y6564089D01*
X34694170Y6439191D01*
X34694171Y6439189D01*
X34728129Y6400000D01*
X34784088Y6335419D01*
X34841844Y6298302D01*
X34899600Y6261184D01*
X35031346Y6222500D01*
X35031348Y6222500D01*
X35043343Y6218978D01*
X35097333Y6186422D01*
X35128335Y6131525D01*
X35128335Y6068479D01*
X35097334Y6013581D01*
X35043345Y5981024D01*
X34899600Y5938816D01*
X34784088Y5864582D01*
X34694170Y5760810D01*
X34637130Y5635912D01*
X34620246Y5518476D01*
X34617590Y5500000D01*
X21900000Y5500000D01*
X21900000Y7000000D01*
X30517590Y7000000D01*
X30537130Y6864089D01*
X30549999Y6835911D01*
X30594171Y6739189D01*
X30628128Y6700001D01*
X30684088Y6635419D01*
X30741844Y6598302D01*
X30799600Y6561184D01*
X30931346Y6522500D01*
X31068654Y6522500D01*
X31200400Y6561184D01*
X31315911Y6635419D01*
X31405829Y6739189D01*
X31462869Y6864089D01*
X31477262Y6964197D01*
X31491595Y7000001D01*
X31708404Y7000001D01*
X31722738Y6964196D01*
X31737130Y6864089D01*
X31749999Y6835911D01*
X31794171Y6739189D01*
X31828128Y6700001D01*
X31884088Y6635419D01*
X31941844Y6598302D01*
X31999600Y6561184D01*
X32131346Y6522500D01*
X32268654Y6522500D01*
X32400400Y6561184D01*
X32515911Y6635419D01*
X32605829Y6739189D01*
X32662869Y6864089D01*
X32682410Y7000000D01*
X32662869Y7135911D01*
X32661542Y7138816D01*
X32630860Y7206000D01*
X32611455Y7248491D01*
X32600250Y7300001D01*
X32611454Y7351508D01*
X32662869Y7464089D01*
X32682410Y7600000D01*
X32662869Y7735911D01*
X32605829Y7860811D01*
X32560870Y7912696D01*
X32515911Y7964582D01*
X32400398Y8038817D01*
X32268654Y8077500D01*
X32131346Y8077500D01*
X31999601Y8038817D01*
X31884088Y7964582D01*
X31794170Y7860810D01*
X31737130Y7735912D01*
X31722738Y7635805D01*
X31708404Y7600001D01*
X31722738Y7564196D01*
X31737130Y7464089D01*
X31788543Y7351512D01*
X31799749Y7300000D01*
X31788543Y7248488D01*
X31737130Y7135912D01*
X31722738Y7035805D01*
X31708404Y7000001D01*
X31491595Y7000001D01*
X31477262Y7035805D01*
X31462869Y7135912D01*
X31430860Y7206000D01*
X31411455Y7248491D01*
X31400250Y7300001D01*
X31411454Y7351508D01*
X31462869Y7464089D01*
X31477262Y7564197D01*
X31491595Y7600001D01*
X31477262Y7635805D01*
X31462869Y7735912D01*
X31405829Y7860810D01*
X31405829Y7860811D01*
X31360870Y7912696D01*
X31315911Y7964582D01*
X31200398Y8038817D01*
X31068654Y8077500D01*
X30931346Y8077500D01*
X30799601Y8038817D01*
X30684088Y7964582D01*
X30594170Y7860810D01*
X30537130Y7735912D01*
X30517590Y7600000D01*
X30537130Y7464089D01*
X30588543Y7351512D01*
X30599749Y7300000D01*
X30588543Y7248488D01*
X30537130Y7135912D01*
X30517590Y7000000D01*
X21900000Y7000000D01*
X21900000Y7600000D01*
X20900000Y7600000D01*
X20900000Y6524000D01*
X20883387Y6462000D01*
X20838000Y6416613D01*
X20776000Y6400000D01*
X18624000Y6400000D01*
X18562000Y6416613D01*
X18516613Y6462000D01*
X18500000Y6524000D01*
X18500000Y8676000D01*
X18516613Y8738000D01*
X18562000Y8783387D01*
X18624000Y8800000D01*
X20770728Y8800000D01*
X20826181Y8786910D01*
X21000000Y8700000D01*
X21171748Y8700000D01*
X21206683Y8694977D01*
X21219599Y8691185D01*
X21219600Y8691184D01*
X21351346Y8652500D01*
X21488654Y8652500D01*
X21620400Y8691184D01*
X21620400Y8691185D01*
X21633317Y8694977D01*
X21668252Y8700000D01*
X21900000Y8700000D01*
X21900000Y8900000D01*
X40017590Y8900000D01*
X40037130Y8764089D01*
X40077360Y8676000D01*
X40094171Y8639189D01*
X40132203Y8595299D01*
X40184088Y8535419D01*
X40199999Y8525194D01*
X40299600Y8461184D01*
X40431346Y8422500D01*
X40568654Y8422500D01*
X40700400Y8461184D01*
X40732961Y8482111D01*
X40776532Y8499554D01*
X40823468Y8499554D01*
X40867038Y8482111D01*
X40899600Y8461184D01*
X41031346Y8422500D01*
X41168654Y8422500D01*
X41300400Y8461184D01*
X41415911Y8535419D01*
X41505829Y8639189D01*
X41562869Y8764089D01*
X41582410Y8900000D01*
X41562869Y9035911D01*
X41531605Y9104369D01*
X41511457Y9148488D01*
X41500251Y9200000D01*
X41511457Y9251512D01*
X41562869Y9364089D01*
X41568495Y9403218D01*
X41582410Y9500000D01*
X41562869Y9635911D01*
X41556805Y9649189D01*
X41511457Y9748488D01*
X41500251Y9800000D01*
X41511457Y9851512D01*
X41562869Y9964089D01*
X41562868Y9964089D01*
X41582410Y10100000D01*
X41562869Y10235911D01*
X41505829Y10360811D01*
X41460870Y10412696D01*
X41415911Y10464582D01*
X41300398Y10538817D01*
X41168654Y10577500D01*
X41031346Y10577500D01*
X40899598Y10538816D01*
X40867037Y10517890D01*
X40799998Y10498206D01*
X40732960Y10517891D01*
X40700400Y10538816D01*
X40568654Y10577500D01*
X40431346Y10577500D01*
X40299601Y10538817D01*
X40184088Y10464582D01*
X40094170Y10360810D01*
X40037130Y10235912D01*
X40017590Y10100001D01*
X40037131Y9964087D01*
X40088542Y9851512D01*
X40099748Y9800001D01*
X40088543Y9748490D01*
X40037130Y9635911D01*
X40017590Y9500000D01*
X40037131Y9364087D01*
X40088542Y9251512D01*
X40099748Y9200001D01*
X40088543Y9148490D01*
X40037130Y9035911D01*
X40017590Y8900000D01*
X21900000Y8900000D01*
X21900000Y9104369D01*
X21901262Y9122015D01*
X21902410Y9130000D01*
X21901262Y9137985D01*
X21900000Y9155631D01*
X21900000Y9403218D01*
X21915168Y9462645D01*
X21956961Y9507534D01*
X22015911Y9545419D01*
X22015911Y9545420D01*
X22105829Y9649189D01*
X22162869Y9774089D01*
X22182410Y9910000D01*
X22162869Y10045911D01*
X22105829Y10170811D01*
X22049418Y10235912D01*
X22015911Y10274582D01*
X21900398Y10348817D01*
X21768654Y10387500D01*
X21631346Y10387500D01*
X21499601Y10348817D01*
X21384088Y10274582D01*
X21294170Y10170810D01*
X21237130Y10045912D01*
X21231443Y10006353D01*
X21209712Y9952073D01*
X21165525Y9913784D01*
X21108705Y9900000D01*
X17400000Y9900000D01*
X17400000Y5400000D01*
X300220Y5400000D01*
X300220Y6700001D01*
X15817590Y6700001D01*
X15837130Y6564089D01*
X15894170Y6439191D01*
X15894171Y6439189D01*
X15928129Y6400000D01*
X15984088Y6335419D01*
X16041844Y6298302D01*
X16099600Y6261184D01*
X16231346Y6222500D01*
X16368654Y6222500D01*
X16500400Y6261184D01*
X16615911Y6335419D01*
X16705829Y6439189D01*
X16762869Y6564089D01*
X16782410Y6700000D01*
X16762869Y6835911D01*
X16705829Y6960811D01*
X16640846Y7035805D01*
X16615911Y7064582D01*
X16504920Y7135911D01*
X16500400Y7138816D01*
X16500399Y7138817D01*
X16500398Y7138817D01*
X16368654Y7177500D01*
X16231346Y7177500D01*
X16099601Y7138817D01*
X15984088Y7064582D01*
X15894170Y6960810D01*
X15837130Y6835912D01*
X15817590Y6700001D01*
X300220Y6700001D01*
X300220Y8300000D01*
X14468104Y8300000D01*
X14485599Y8178319D01*
X14536664Y8066501D01*
X14617167Y7973596D01*
X14617168Y7973595D01*
X14720584Y7907134D01*
X14838535Y7872500D01*
X14961465Y7872500D01*
X15079416Y7907134D01*
X15182832Y7973595D01*
X15263334Y8066499D01*
X15314401Y8178321D01*
X15331896Y8300000D01*
X15314401Y8421679D01*
X15267128Y8525194D01*
X15263335Y8533500D01*
X15182832Y8626405D01*
X15079416Y8692866D01*
X15079415Y8692867D01*
X15079414Y8692867D01*
X14961465Y8727500D01*
X14838535Y8727500D01*
X14720585Y8692867D01*
X14617167Y8626405D01*
X14536664Y8533500D01*
X14485599Y8421682D01*
X14468104Y8300000D01*
X300220Y8300000D01*
X300220Y11140600D01*
X17863104Y11140600D01*
X17880599Y11018919D01*
X17931664Y10907101D01*
X17931666Y10907099D01*
X18012168Y10814195D01*
X18115584Y10747734D01*
X18233535Y10713100D01*
X18356465Y10713100D01*
X18474416Y10747734D01*
X18577832Y10814195D01*
X18658334Y10907099D01*
X18709401Y11018921D01*
X18726896Y11140600D01*
X18709401Y11262279D01*
X18692175Y11300000D01*
X19617793Y11300000D01*
X19636499Y11181893D01*
X19690789Y11075345D01*
X19775345Y10990789D01*
X19881892Y10936500D01*
X20000000Y10917794D01*
X20118108Y10936500D01*
X20224655Y10990789D01*
X20309211Y11075345D01*
X20363500Y11181892D01*
X20382206Y11300000D01*
X20363500Y11418108D01*
X20323709Y11496201D01*
X21673390Y11496201D01*
X21692930Y11360289D01*
X21749970Y11235391D01*
X21749971Y11235389D01*
X21788002Y11191499D01*
X21839888Y11131619D01*
X21897644Y11094502D01*
X21955400Y11057384D01*
X22087146Y11018700D01*
X22224454Y11018700D01*
X22356200Y11057384D01*
X22471711Y11131619D01*
X22561629Y11235389D01*
X22618669Y11360289D01*
X22638210Y11496200D01*
X22618669Y11632111D01*
X22561629Y11757011D01*
X22505516Y11821768D01*
X22471711Y11860782D01*
X22356198Y11935017D01*
X22224454Y11973700D01*
X22087146Y11973700D01*
X21955401Y11935017D01*
X21839888Y11860782D01*
X21749970Y11757010D01*
X21692930Y11632112D01*
X21673390Y11496201D01*
X20323709Y11496201D01*
X20309211Y11524655D01*
X20224655Y11609211D01*
X20179710Y11632112D01*
X20118107Y11663501D01*
X20000000Y11682207D01*
X19881892Y11663501D01*
X19775344Y11609211D01*
X19690789Y11524656D01*
X19636499Y11418108D01*
X19617793Y11300000D01*
X18692175Y11300000D01*
X18658335Y11374100D01*
X18577832Y11467005D01*
X18488126Y11524655D01*
X18474416Y11533466D01*
X18474415Y11533467D01*
X18474414Y11533467D01*
X18356465Y11568100D01*
X18233535Y11568100D01*
X18115585Y11533467D01*
X18012167Y11467005D01*
X17931664Y11374100D01*
X17880599Y11262282D01*
X17863104Y11140600D01*
X300220Y11140600D01*
X300220Y12385201D01*
X13621590Y12385201D01*
X13641130Y12249289D01*
X13679278Y12165759D01*
X13698171Y12124389D01*
X13736203Y12080499D01*
X13788088Y12020619D01*
X13828987Y11994335D01*
X13903600Y11946384D01*
X14035346Y11907700D01*
X14172652Y11907700D01*
X14172654Y11907700D01*
X14174139Y11908137D01*
X14226719Y11911897D01*
X14276112Y11893475D01*
X14313388Y11856199D01*
X14331811Y11806806D01*
X14352330Y11664089D01*
X14409370Y11539191D01*
X14409371Y11539189D01*
X14421965Y11524655D01*
X14499288Y11435419D01*
X14526225Y11418108D01*
X14614800Y11361184D01*
X14746546Y11322500D01*
X14883854Y11322500D01*
X15015600Y11361184D01*
X15131111Y11435419D01*
X15221029Y11539189D01*
X15278069Y11664089D01*
X15293638Y11772376D01*
X15312060Y11821768D01*
X15349336Y11859044D01*
X15398729Y11877467D01*
X15451309Y11873707D01*
X15508546Y11856900D01*
X15645854Y11856900D01*
X15777600Y11895584D01*
X15893111Y11969819D01*
X15983029Y12073589D01*
X16040069Y12198489D01*
X16059610Y12334400D01*
X16040069Y12470311D01*
X15983029Y12595211D01*
X15938070Y12647096D01*
X15893111Y12698982D01*
X15777598Y12773217D01*
X15645854Y12811900D01*
X15508546Y12811900D01*
X15376801Y12773217D01*
X15261288Y12698982D01*
X15171370Y12595210D01*
X15114330Y12470312D01*
X15098761Y12362024D01*
X15069736Y12298469D01*
X15010958Y12260695D01*
X14941089Y12260695D01*
X14883855Y12277500D01*
X14883854Y12277500D01*
X14746546Y12277500D01*
X14746545Y12277500D01*
X14745060Y12277064D01*
X14692478Y12273303D01*
X14643086Y12291726D01*
X14605810Y12329002D01*
X14587388Y12378395D01*
X14586409Y12385201D01*
X14566869Y12521111D01*
X14509829Y12646011D01*
X14463929Y12698982D01*
X14419911Y12749782D01*
X14304398Y12824017D01*
X14172654Y12862700D01*
X14035346Y12862700D01*
X13903601Y12824017D01*
X13788088Y12749782D01*
X13698170Y12646010D01*
X13641130Y12521112D01*
X13621590Y12385201D01*
X300220Y12385201D01*
X300220Y14975001D01*
X19267793Y14975001D01*
X19286499Y14856893D01*
X19286500Y14856892D01*
X19340789Y14750345D01*
X19425345Y14665789D01*
X19531892Y14611500D01*
X19650000Y14592794D01*
X19768108Y14611500D01*
X19874655Y14665789D01*
X19959211Y14750345D01*
X20013500Y14856892D01*
X20032206Y14975000D01*
X20013500Y15093108D01*
X19959211Y15199655D01*
X19874655Y15284211D01*
X19874654Y15284212D01*
X19768107Y15338501D01*
X19650000Y15357207D01*
X19531892Y15338501D01*
X19425344Y15284211D01*
X19340789Y15199656D01*
X19286499Y15093108D01*
X19267793Y14975001D01*
X300220Y14975001D01*
X300220Y17465200D01*
X8033590Y17465200D01*
X8053130Y17329289D01*
X8109600Y17205640D01*
X8110171Y17204389D01*
X8140828Y17169009D01*
X8200088Y17100619D01*
X8257844Y17063502D01*
X8315600Y17026384D01*
X8447346Y16987700D01*
X8584654Y16987700D01*
X8716400Y17026384D01*
X8831911Y17100619D01*
X8854088Y17126213D01*
X8896288Y17157803D01*
X8947800Y17169009D01*
X8999312Y17157803D01*
X9041511Y17126213D01*
X9063689Y17100619D01*
X9179200Y17026384D01*
X9310946Y16987700D01*
X9448254Y16987700D01*
X9580000Y17026384D01*
X9695511Y17100619D01*
X9695512Y17100622D01*
X9707852Y17108551D01*
X9734488Y17128489D01*
X9786000Y17139695D01*
X9837512Y17128489D01*
X9864147Y17108551D01*
X9876488Y17100620D01*
X9876489Y17100619D01*
X9992000Y17026384D01*
X10123746Y16987700D01*
X10261054Y16987700D01*
X10392800Y17026384D01*
X10508311Y17100619D01*
X10598229Y17204389D01*
X10655269Y17329289D01*
X10674810Y17465200D01*
X10655269Y17601111D01*
X10598229Y17726011D01*
X10598228Y17726012D01*
X10598228Y17726013D01*
X10542438Y17790397D01*
X10515645Y17842366D01*
X10515645Y17900834D01*
X10542438Y17952803D01*
X10598228Y18017188D01*
X10598227Y18017188D01*
X10598229Y18017189D01*
X10655269Y18142089D01*
X10674810Y18278000D01*
X10655269Y18413911D01*
X10598229Y18538811D01*
X10598228Y18538812D01*
X10598228Y18538813D01*
X10542438Y18603197D01*
X10515645Y18655166D01*
X10515645Y18713634D01*
X10542438Y18765603D01*
X10598228Y18829988D01*
X10598227Y18829988D01*
X10598229Y18829989D01*
X10655269Y18954889D01*
X10674810Y19090800D01*
X10655269Y19226711D01*
X10598229Y19351611D01*
X10598228Y19351612D01*
X10598228Y19351613D01*
X10542438Y19415997D01*
X10515645Y19467966D01*
X10515645Y19526434D01*
X10542438Y19578403D01*
X10598228Y19642788D01*
X10598227Y19642788D01*
X10598229Y19642789D01*
X10655269Y19767689D01*
X10674810Y19903600D01*
X10655269Y20039511D01*
X10598229Y20164411D01*
X10532746Y20239982D01*
X10508311Y20268182D01*
X10392798Y20342417D01*
X10261054Y20381100D01*
X10123746Y20381100D01*
X9992001Y20342417D01*
X9863239Y20259666D01*
X9796200Y20239982D01*
X9729161Y20259666D01*
X9600398Y20342417D01*
X9468654Y20381100D01*
X9331346Y20381100D01*
X9199601Y20342417D01*
X9084088Y20268181D01*
X9051713Y20230818D01*
X8992935Y20193044D01*
X8923065Y20193044D01*
X8864287Y20230818D01*
X8831911Y20268181D01*
X8716398Y20342417D01*
X8584654Y20381100D01*
X8447346Y20381100D01*
X8315601Y20342417D01*
X8200088Y20268182D01*
X8110170Y20164410D01*
X8053130Y20039512D01*
X8033590Y19903601D01*
X8053130Y19767689D01*
X8110170Y19642790D01*
X8165962Y19578403D01*
X8192754Y19526434D01*
X8192754Y19467966D01*
X8165962Y19415997D01*
X8110170Y19351611D01*
X8053130Y19226712D01*
X8033590Y19090800D01*
X8053130Y18954889D01*
X8110170Y18829990D01*
X8165962Y18765603D01*
X8192754Y18713634D01*
X8192754Y18655166D01*
X8165962Y18603197D01*
X8110170Y18538811D01*
X8053130Y18413912D01*
X8033590Y18278001D01*
X8053130Y18142089D01*
X8110170Y18017190D01*
X8165962Y17952803D01*
X8192754Y17900834D01*
X8192754Y17842366D01*
X8165962Y17790397D01*
X8110170Y17726011D01*
X8053130Y17601112D01*
X8033590Y17465200D01*
X300220Y17465200D01*
X300220Y21202000D01*
X316833Y21264000D01*
X362220Y21309387D01*
X424220Y21326000D01*
X5468000Y21326000D01*
X5468000Y23866000D01*
X14739190Y23866000D01*
X14758730Y23730089D01*
X14815770Y23605191D01*
X14815771Y23605189D01*
X14853802Y23561299D01*
X14905688Y23501419D01*
X14963444Y23464302D01*
X15021200Y23427184D01*
X15152946Y23388500D01*
X15290254Y23388500D01*
X15422000Y23427184D01*
X15537511Y23501419D01*
X15627429Y23605189D01*
X15684469Y23730089D01*
X15704010Y23866000D01*
X15684469Y24001911D01*
X15627429Y24126811D01*
X15582470Y24178696D01*
X15537511Y24230582D01*
X15421998Y24304817D01*
X15290254Y24343500D01*
X15152946Y24343500D01*
X15021201Y24304817D01*
X14905688Y24230582D01*
X14815770Y24126810D01*
X14758730Y24001912D01*
X14739190Y23866000D01*
X5468000Y23866000D01*
X5468000Y25989269D01*
X5484666Y26051361D01*
X5530184Y26096762D01*
X5592318Y26113269D01*
X25646197Y26061843D01*
G37*
%TD.AperFunction*%
%TD*%
%TA.AperFunction,Conductor*%
%TO.N,GND*%
G36*
X49637780Y49683167D02*
G01*
X49683167Y49637780D01*
X49699780Y49575780D01*
X49699780Y27124000D01*
X49683167Y27062000D01*
X49637780Y27016613D01*
X49575780Y27000000D01*
X424220Y27000000D01*
X362220Y27016613D01*
X316833Y27062000D01*
X300220Y27124000D01*
X300220Y29990001D01*
X4257590Y29990001D01*
X4277130Y29854089D01*
X4334170Y29729191D01*
X4334171Y29729189D01*
X4372202Y29685299D01*
X4424088Y29625419D01*
X4481844Y29588302D01*
X4539600Y29551184D01*
X4671346Y29512500D01*
X4808654Y29512500D01*
X4940400Y29551184D01*
X5055911Y29625419D01*
X5145829Y29729189D01*
X5202869Y29854089D01*
X5222410Y29990000D01*
X5202869Y30125911D01*
X5145829Y30250811D01*
X5100869Y30302697D01*
X5055911Y30354582D01*
X4940398Y30428817D01*
X4808654Y30467500D01*
X4671346Y30467500D01*
X4539601Y30428817D01*
X4424088Y30354582D01*
X4334170Y30250810D01*
X4277130Y30125912D01*
X4257590Y29990001D01*
X300220Y29990001D01*
X300220Y31080001D01*
X28048790Y31080001D01*
X28068330Y30944089D01*
X28086598Y30904089D01*
X28125371Y30819189D01*
X28163403Y30775299D01*
X28215288Y30715419D01*
X28273044Y30678302D01*
X28330800Y30641184D01*
X28462546Y30602500D01*
X28599854Y30602500D01*
X28731600Y30641184D01*
X28847111Y30715419D01*
X28937029Y30819189D01*
X28994069Y30944089D01*
X29007859Y31040001D01*
X30436390Y31040001D01*
X30455930Y30904089D01*
X30512970Y30779191D01*
X30512971Y30779189D01*
X30551003Y30735299D01*
X30602888Y30675419D01*
X30656159Y30641184D01*
X30718400Y30601184D01*
X30850146Y30562500D01*
X30987454Y30562500D01*
X31119200Y30601184D01*
X31234711Y30675419D01*
X31324629Y30779189D01*
X31381669Y30904089D01*
X31401210Y31040000D01*
X31381669Y31175911D01*
X31324629Y31300811D01*
X31279669Y31352697D01*
X31234711Y31404582D01*
X31119198Y31478817D01*
X30987454Y31517500D01*
X30850146Y31517500D01*
X30718401Y31478817D01*
X30602888Y31404582D01*
X30512970Y31300810D01*
X30455930Y31175912D01*
X30436390Y31040001D01*
X29007859Y31040001D01*
X29013610Y31080000D01*
X28994069Y31215911D01*
X28937029Y31340811D01*
X28892070Y31392696D01*
X28847111Y31444582D01*
X28757240Y31502338D01*
X28731600Y31518816D01*
X28731599Y31518817D01*
X28731598Y31518817D01*
X28599854Y31557500D01*
X28462546Y31557500D01*
X28330801Y31518817D01*
X28215288Y31444582D01*
X28125370Y31340810D01*
X28068330Y31215912D01*
X28048790Y31080001D01*
X300220Y31080001D01*
X300220Y32320000D01*
X19567590Y32320000D01*
X19587130Y32184089D01*
X19644170Y32059191D01*
X19644171Y32059189D01*
X19682202Y32015299D01*
X19734088Y31955419D01*
X19791844Y31918302D01*
X19849600Y31881184D01*
X19981346Y31842500D01*
X20118654Y31842500D01*
X20250400Y31881184D01*
X20365911Y31955419D01*
X20455829Y32059189D01*
X20512869Y32184089D01*
X20532410Y32320000D01*
X20512869Y32455911D01*
X20455829Y32580811D01*
X20377520Y32671184D01*
X20365911Y32684582D01*
X20250398Y32758817D01*
X20118654Y32797500D01*
X19981346Y32797500D01*
X19849601Y32758817D01*
X19734088Y32684582D01*
X19644170Y32580810D01*
X19587130Y32455912D01*
X19567590Y32320000D01*
X300220Y32320000D01*
X300220Y33110000D01*
X17587590Y33110000D01*
X17607130Y32974089D01*
X17664170Y32849191D01*
X17664171Y32849189D01*
X17702202Y32805299D01*
X17754088Y32745419D01*
X17811844Y32708302D01*
X17869600Y32671184D01*
X18001346Y32632500D01*
X18138654Y32632500D01*
X18270400Y32671184D01*
X18385911Y32745419D01*
X18475829Y32849189D01*
X18532869Y32974089D01*
X18552410Y33110000D01*
X18532869Y33245911D01*
X18475829Y33370811D01*
X18430870Y33422696D01*
X18385911Y33474582D01*
X18270398Y33548817D01*
X18138654Y33587500D01*
X18001346Y33587500D01*
X17869601Y33548817D01*
X17754088Y33474582D01*
X17664170Y33370810D01*
X17607130Y33245912D01*
X17587590Y33110000D01*
X300220Y33110000D01*
X300220Y34470001D01*
X20677590Y34470001D01*
X20697130Y34334089D01*
X20749603Y34219191D01*
X20754171Y34209189D01*
X20792202Y34165299D01*
X20844088Y34105419D01*
X20901844Y34068302D01*
X20959600Y34031184D01*
X21091346Y33992500D01*
X21228654Y33992500D01*
X21360400Y34031184D01*
X21475911Y34105419D01*
X21565829Y34209189D01*
X21622869Y34334089D01*
X21642410Y34470000D01*
X21640972Y34480001D01*
X23307590Y34480001D01*
X23327130Y34344089D01*
X23384170Y34219191D01*
X23384171Y34219189D01*
X23422203Y34175299D01*
X23474088Y34115419D01*
X23531844Y34078302D01*
X23589600Y34041184D01*
X23721346Y34002500D01*
X23858654Y34002500D01*
X23990400Y34041184D01*
X24105911Y34115419D01*
X24195829Y34219189D01*
X24252869Y34344089D01*
X24272410Y34480000D01*
X24252869Y34615911D01*
X24195829Y34740811D01*
X24150870Y34792696D01*
X24105911Y34844582D01*
X24005960Y34908816D01*
X23990400Y34918816D01*
X23990399Y34918817D01*
X23990398Y34918817D01*
X23858654Y34957500D01*
X23721346Y34957500D01*
X23589601Y34918817D01*
X23474088Y34844582D01*
X23384170Y34740810D01*
X23327130Y34615912D01*
X23307590Y34480001D01*
X21640972Y34480001D01*
X21625678Y34586371D01*
X21622869Y34605912D01*
X21565829Y34730810D01*
X21565829Y34730811D01*
X21520870Y34782696D01*
X21475911Y34834582D01*
X21360398Y34908817D01*
X21228654Y34947500D01*
X21091346Y34947500D01*
X20959601Y34908817D01*
X20844088Y34834582D01*
X20754170Y34730810D01*
X20697130Y34605912D01*
X20677590Y34470001D01*
X300220Y34470001D01*
X300220Y35080001D01*
X26607590Y35080001D01*
X26627130Y34944089D01*
X26684170Y34819191D01*
X26684171Y34819189D01*
X26722202Y34775299D01*
X26774088Y34715419D01*
X26831844Y34678302D01*
X26889600Y34641184D01*
X27021346Y34602500D01*
X27158654Y34602500D01*
X27290400Y34641184D01*
X27405911Y34715419D01*
X27495829Y34819189D01*
X27552869Y34944089D01*
X27572410Y35080000D01*
X27552869Y35215911D01*
X27495829Y35340811D01*
X27450870Y35392696D01*
X27405911Y35444582D01*
X27290398Y35518817D01*
X27158654Y35557500D01*
X27021346Y35557500D01*
X26889601Y35518817D01*
X26774088Y35444582D01*
X26684170Y35340810D01*
X26627130Y35215912D01*
X26607590Y35080001D01*
X300220Y35080001D01*
X300220Y40884001D01*
X18295190Y40884001D01*
X18314730Y40748089D01*
X18371770Y40623191D01*
X18371771Y40623189D01*
X18409803Y40579299D01*
X18461688Y40519419D01*
X18519444Y40482302D01*
X18577200Y40445184D01*
X18708946Y40406500D01*
X18846254Y40406500D01*
X18978000Y40445184D01*
X19093511Y40519419D01*
X19183429Y40623189D01*
X19240469Y40748089D01*
X19260010Y40884000D01*
X19240469Y41019911D01*
X19183429Y41144811D01*
X19138470Y41196696D01*
X19093511Y41248582D01*
X18977998Y41322817D01*
X18846254Y41361500D01*
X18708946Y41361500D01*
X18577201Y41322817D01*
X18461688Y41248582D01*
X18371770Y41144810D01*
X18314730Y41019912D01*
X18295190Y40884001D01*
X300220Y40884001D01*
X300220Y41849201D01*
X20072904Y41849201D01*
X20090399Y41727519D01*
X20141464Y41615701D01*
X20141466Y41615699D01*
X20221968Y41522795D01*
X20325384Y41456334D01*
X20443335Y41421700D01*
X20566265Y41421700D01*
X20684216Y41456334D01*
X20787632Y41522795D01*
X20868134Y41615699D01*
X20919201Y41727521D01*
X20936696Y41849200D01*
X20919201Y41970879D01*
X20904035Y42004089D01*
X20868135Y42082700D01*
X20818483Y42140001D01*
X29497590Y42140001D01*
X29517130Y42004089D01*
X29574170Y41879191D01*
X29574171Y41879189D01*
X29600156Y41849201D01*
X29664088Y41775419D01*
X29721844Y41738302D01*
X29779600Y41701184D01*
X29911346Y41662500D01*
X30048654Y41662500D01*
X30180400Y41701184D01*
X30295911Y41775419D01*
X30385829Y41879189D01*
X30442869Y42004089D01*
X30462410Y42140000D01*
X30442869Y42275911D01*
X30385829Y42400811D01*
X30319651Y42477184D01*
X30295911Y42504582D01*
X30180398Y42578817D01*
X30048654Y42617500D01*
X29911346Y42617500D01*
X29779601Y42578817D01*
X29664088Y42504582D01*
X29574170Y42400810D01*
X29517130Y42275912D01*
X29497590Y42140001D01*
X20818483Y42140001D01*
X20787632Y42175605D01*
X20684214Y42242067D01*
X20566265Y42276700D01*
X20443335Y42276700D01*
X20325385Y42242067D01*
X20221967Y42175605D01*
X20141464Y42082700D01*
X20090399Y41970882D01*
X20072904Y41849201D01*
X300220Y41849201D01*
X300220Y42916001D01*
X19209590Y42916001D01*
X19229130Y42780089D01*
X19286170Y42655191D01*
X19286171Y42655189D01*
X19318829Y42617500D01*
X19376088Y42551419D01*
X19433844Y42514302D01*
X19491600Y42477184D01*
X19623346Y42438500D01*
X19760654Y42438500D01*
X19892400Y42477184D01*
X20007911Y42551419D01*
X20097829Y42655189D01*
X20154869Y42780089D01*
X20174410Y42916000D01*
X20154869Y43051911D01*
X20097829Y43176811D01*
X20052870Y43228696D01*
X20007911Y43280582D01*
X19892398Y43354817D01*
X19760654Y43393500D01*
X19623346Y43393500D01*
X19491601Y43354817D01*
X19376088Y43280582D01*
X19286170Y43176810D01*
X19229130Y43051912D01*
X19209590Y42916001D01*
X300220Y42916001D01*
X300220Y45760801D01*
X25102390Y45760801D01*
X25121930Y45624889D01*
X25155770Y45550791D01*
X25178971Y45499989D01*
X25217002Y45456099D01*
X25268888Y45396219D01*
X25305354Y45372784D01*
X25384400Y45321984D01*
X25516146Y45283300D01*
X25653454Y45283300D01*
X25785200Y45321984D01*
X25900711Y45396219D01*
X25990629Y45499989D01*
X26047669Y45624889D01*
X26067210Y45760800D01*
X26059906Y45811600D01*
X27235990Y45811600D01*
X27255530Y45675689D01*
X27312570Y45550791D01*
X27312571Y45550789D01*
X27350602Y45506899D01*
X27402488Y45447019D01*
X27460244Y45409902D01*
X27518000Y45372784D01*
X27649746Y45334100D01*
X27787054Y45334100D01*
X27918800Y45372784D01*
X28034311Y45447019D01*
X28124229Y45550789D01*
X28181269Y45675689D01*
X28200810Y45811600D01*
X28181269Y45947511D01*
X28127339Y46065600D01*
X30283990Y46065600D01*
X30303530Y45929689D01*
X30360570Y45804791D01*
X30360571Y45804789D01*
X30398602Y45760899D01*
X30450488Y45701019D01*
X30489903Y45675689D01*
X30566000Y45626784D01*
X30697746Y45588100D01*
X30835054Y45588100D01*
X30966800Y45626784D01*
X31082311Y45701019D01*
X31172229Y45804789D01*
X31229269Y45929689D01*
X31248810Y46065600D01*
X31231725Y46184428D01*
X31229269Y46201512D01*
X31172229Y46326410D01*
X31172229Y46326411D01*
X31127269Y46378297D01*
X31082311Y46430182D01*
X30966798Y46504417D01*
X30835054Y46543100D01*
X30697746Y46543100D01*
X30566001Y46504417D01*
X30450488Y46430182D01*
X30360570Y46326410D01*
X30303530Y46201512D01*
X30283990Y46065600D01*
X28127339Y46065600D01*
X28124229Y46072411D01*
X28078329Y46125382D01*
X28034311Y46176182D01*
X27918798Y46250417D01*
X27787054Y46289100D01*
X27649746Y46289100D01*
X27518001Y46250417D01*
X27402488Y46176182D01*
X27312570Y46072410D01*
X27255530Y45947512D01*
X27235990Y45811600D01*
X26059906Y45811600D01*
X26047669Y45896711D01*
X26032608Y45929689D01*
X25990629Y46021610D01*
X25990629Y46021611D01*
X25945669Y46073497D01*
X25900711Y46125382D01*
X25785198Y46199617D01*
X25653454Y46238300D01*
X25516146Y46238300D01*
X25384401Y46199617D01*
X25268888Y46125382D01*
X25178970Y46021610D01*
X25121930Y45896712D01*
X25102390Y45760801D01*
X300220Y45760801D01*
X300220Y47030801D01*
X16487590Y47030801D01*
X16507130Y46894889D01*
X16564170Y46769991D01*
X16564171Y46769989D01*
X16602202Y46726099D01*
X16654088Y46666219D01*
X16711844Y46629102D01*
X16769600Y46591984D01*
X16901346Y46553300D01*
X17038654Y46553300D01*
X17170400Y46591984D01*
X17285911Y46666219D01*
X17375829Y46769989D01*
X17432869Y46894889D01*
X17452410Y47030800D01*
X17432869Y47166711D01*
X17375829Y47291611D01*
X17330869Y47343497D01*
X17285911Y47395382D01*
X17170398Y47469617D01*
X17038654Y47508300D01*
X16901346Y47508300D01*
X16769601Y47469617D01*
X16654088Y47395382D01*
X16564170Y47291610D01*
X16507130Y47166712D01*
X16487590Y47030801D01*
X300220Y47030801D01*
X300220Y49575780D01*
X316833Y49637780D01*
X362220Y49683167D01*
X424220Y49699780D01*
X49575780Y49699780D01*
X49637780Y49683167D01*
G37*
%TD.AperFunction*%
%TD*%
M02*
